<?xml version="1.0" encoding="UTF-8"?>
<!DOCTYPE svg PUBLIC "-//W3C//DTD SVG 1.1//EN" "http://www.w3.org/Graphics/SVG/1.1/DTD/svg11.dtd">
<!-- Creator: CorelDRAW 2020 (64 Bit) -->
<svg xmlns="http://www.w3.org/2000/svg" xml:space="preserve" width="91.44mm" height="91.44mm" version="1.1" style="shape-rendering:geometricPrecision; text-rendering:geometricPrecision; image-rendering:optimizeQuality; fill-rule:evenodd; clip-rule:evenodd"
viewBox="0 0 9144 9144"
 xmlns:xlink="http://www.w3.org/1999/xlink"
 xmlns:xodm="http://www.corel.com/coreldraw/odm/2003">
 <defs>
  <style type="text/css">
   <![CDATA[
    .fil73 {fill:none}
    .fil42 {fill:#000509}
    .fil64 {fill:#000912}
    .fil26 {fill:#025647}
    .fil22 {fill:#02B499}
    .fil31 {fill:#036655}
    .fil8 {fill:#037B65}
    .fil63 {fill:#03C7A9}
    .fil13 {fill:#03DDBD}
    .fil45 {fill:#04BBA2}
    .fil41 {fill:#068B77}
    .fil34 {fill:#06937C}
    .fil10 {fill:#087765}
    .fil30 {fill:#08D5B6}
    .fil5 {fill:#099A85}
    .fil39 {fill:#0AAB92}
    .fil17 {fill:#0B7A64}
    .fil7 {fill:#0BDCBC}
    .fil12 {fill:#0BDEC1}
    .fil54 {fill:#10E5CB}
    .fil68 {fill:#131E1C}
    .fil48 {fill:#13DBBC}
    .fil16 {fill:#167966}
    .fil4 {fill:#192D35}
    .fil24 {fill:#19D6B9}
    .fil58 {fill:#1A3238}
    .fil35 {fill:#1B2D32}
    .fil61 {fill:#252C33}
    .fil21 {fill:#264245}
    .fil33 {fill:#29CCB4}
    .fil14 {fill:#2A454E}
    .fil55 {fill:#2B5A63}
    .fil2 {fill:#2C434B}
    .fil72 {fill:#32444C}
    .fil6 {fill:#365A64}
    .fil56 {fill:#36D4BB}
    .fil59 {fill:#37545C}
    .fil11 {fill:#3A5A63}
    .fil60 {fill:#48D9C4}
    .fil9 {fill:#4BEDDE}
    .fil67 {fill:#4CCFBA}
    .fil69 {fill:#4FB4AB}
    .fil18 {fill:#53EBDD}
    .fil49 {fill:#57D8C6}
    .fil62 {fill:#6DE9D4}
    .fil70 {fill:#77E6D8}
    .fil27 {fill:#7BF3E6}
    .fil23 {fill:#84F4E7}
    .fil50 {fill:#87EDE3}
    .fil71 {fill:#899294}
    .fil47 {fill:#90D3C9}
    .fil46 {fill:#99EBE3}
    .fil65 {fill:#A6ABAE}
    .fil28 {fill:#A6F5EB}
    .fil37 {fill:#A9FDF7}
    .fil15 {fill:#AD4A4B}
    .fil32 {fill:#AF4D52}
    .fil53 {fill:#B1D2CD}
    .fil44 {fill:#B7F4EC}
    .fil43 {fill:#B8FEF8}
    .fil3 {fill:#C36364}
    .fil1 {fill:#C66667}
    .fil29 {fill:#C6FBF5}
    .fil57 {fill:#C7F5ED}
    .fil66 {fill:#D5D9DA}
    .fil51 {fill:#D8FAF4}
    .fil52 {fill:#DCE0E0}
    .fil38 {fill:#E4FFFD}
    .fil40 {fill:#EAFEFD}
    .fil20 {fill:#ECBFC1}
    .fil19 {fill:#F4FBFB}
    .fil25 {fill:#F9FEFE}
    .fil36 {fill:#FCFBFB}
    .fil0 {fill:#FDFDFD}
   ]]>
  </style>
   <clipPath id="id0">
    <path d="M-0 0l9144 0 0 9144 -9144 0 0 -9144z"/>
   </clipPath>
    <clipPath id="id1">
     <path d="M-0 0l9144 0 0 9144 -9144 0 0 -9144z"/>
    </clipPath>
    <clipPath id="id2">
     <path d="M-0 0l9144 0 0 9144 -9144 0 0 -9144z"/>
    </clipPath>
 </defs>
 <g id="Camada_x0020_1">
  <metadata id="CorelCorpID_0Corel-Layer"/>
  <g>
  </g>
  <g style="clip-path:url(#id0)">
   <g>
   </g>
   <g style="clip-path:url(#id1)">
    <image x="-0" y="-0" width="9144" height="9144" xlink:href="001_Images\001_ImgID1.png"/>
   </g>
   <g style="clip-path:url(#id2)">
    <g id="_1758410339856">
     <path class="fil0" d="M7098.76 5203.07c78.4,-2.14 201.22,39.08 278.23,57.48 126.07,30.11 179.24,14.46 206.72,133.3 42.34,183.03 78.02,371.77 119.66,558.7 19.22,214.65 -107.01,175.94 -261.96,137l-347.43 -90.4c-43.25,-28.02 -11.88,-0.47 -32.79,-35.42 -45.81,-52.29 -90.2,-365.46 -111.94,-464.26 -15.02,-68.39 -52.1,-182.47 -25.62,-252.82 27.68,-73.5 112.89,-104.15 175.13,-43.58zm-5596.6 -70.68c61.5,-13.06 515.19,-18.31 591.24,-4.32 61.62,65.87 109.64,255.24 147.89,360.67 29.88,82.31 122.54,298.95 94.07,380.1 -15.37,57.11 -27.2,77.48 -51.05,111.38 -95.7,17.19 -546.4,29.25 -608.8,-1.93 -55.92,-57.28 -142.47,-345.48 -166.07,-413.75 -35.56,-102.86 -154.26,-352.36 -7.28,-432.15zm5421.18 -1371.59c26.79,-27.29 28.95,-33.59 34.16,-85.19 38.58,-56.95 104.07,-13.72 164.62,13.42l53.05 35.25 3.8 15.01 63.44 23.13c59.6,79.05 49.44,52.36 2.45,125.25 -53.56,83.06 -1.26,55.71 35.38,110.21 -34.09,168.34 -87.24,57.06 -122.63,153.88 -39.97,109.38 63.06,43.2 -65.23,169.52l-84.95 -26.62c-36.35,64.08 -32.14,145.32 -134.16,101.96 -38.19,-20.68 -45.46,-16.99 -67.39,-43.01 -68.54,-24.31 -128.11,-48.06 -141.59,-121.39 -11.19,-41.66 14.5,-46.58 47.24,-92.02 -8.85,-52.78 -14.9,-38.49 -53.26,-69.27 1.04,-23.74 -1.76,-40.09 7.65,-64.47 11.97,-31.01 8.23,-16.25 27.27,-32.9 43.81,-39.15 86.63,-16.19 91.01,-107.21 -6.51,-8.64 -96.1,0.05 61.06,-128.31l78.08 22.76zm-4467.43 -23.6c39.95,11.56 34.55,11.63 72.16,33.81 40.03,23.6 19.5,1.44 51.59,40.84 23.32,17.25 11.97,-24.03 20.8,54.36 16.81,149.1 -96.21,130.93 -133.91,207.08 -9.31,18.86 -22.2,73.22 -26.46,100.69l73.11 48.31c-17.94,67.09 -64.31,131.41 -96.21,180.9 -83.39,-11.81 -59.91,-45.85 -135.38,11.36l-31.94 26.96c-56.74,71.86 20.05,132.81 -65.61,199.1 -34.47,26.67 -81.98,49.63 -130.19,44.66 -13.37,-16.49 -51.58,-28.62 -73.18,-60.28 -52.57,10.15 -29.97,0.85 -64.47,38.54 -31.32,34.2 14.97,5.15 -40.22,49.79l-91.25 -54.24c-62.99,-30.22 -124.73,-55.53 -162.33,-106.31l42.57 -96.44c-36.58,-26.48 -96.07,-52.81 -129.78,-85.26 -1.72,-61.12 -15.75,-120.97 22.33,-162.03 1.81,-2.23 4.88,-5.13 6,-6.15l89.08 -62.33c18.63,-48.46 34.5,-90.59 28.5,-141.59 -27.24,-7.26 -31.44,-6.68 -59.54,-59.5 50.36,-110.32 86.23,-208.88 164.98,-126.43 39.01,-17.84 77.57,-58.64 96.29,-87.95 25.76,-40.34 17.42,-72.41 25.22,-130.09 14.53,-59.59 -16.06,-25.44 59.16,-64.8 98.58,-51.55 74.31,-41.28 223.73,36.01 15.98,-48.12 29.9,-51.96 47.67,-95.41 61.5,18.98 116.9,54.4 168.83,85.83 48.79,31.3 53.62,39.82 110.09,54.26l-61.64 126.31zm6023.43 98.32l-586.29 189.05c-193.51,62.2 -212.98,-121.16 -135.76,-198.9 -4.95,-64.84 56.69,-245.62 76.41,-313.7 39.35,-135.71 16.37,-193.63 157.48,-238.12 188.03,-59.26 402.12,-145.37 586.62,-186.36 88.42,12.25 123.37,58.14 96.64,155.03l-112.71 415.15c-9.52,30.27 -18.7,57.32 -30.95,97.07 -2.17,7.04 -12.45,36.68 -15.4,41.6 -25.86,43.25 15.09,6.21 -36.04,39.18zm-7516.32 -135.02c-41.75,62.03 -119.61,71.69 -170.16,-5.02 -56.31,-85.45 -270.87,-437.4 -271.69,-493.07 21.65,-86.28 130.87,-244.21 178.28,-325.11 33.08,-56.46 58.68,-98.16 92.77,-155.49 44.92,-75.59 43.22,-97.46 128.08,-126.02 104.47,-21.53 100,-7.02 144.15,69.14 54.51,93.99 257.16,404.67 257.71,456.48 0.43,39.56 -315.46,563.72 -359.14,579.09zm5882.6 -626.21l106.84 59.71c12.03,19.24 4.97,-1.4 12.85,33.63 43.65,193.85 -103.23,98.85 -138.98,306.81l68.61 55.23 -74.65 154.32c-65.08,-3.5 -84.88,-30.67 -128.87,-1.17 -104.35,69.94 -16.72,161.36 -100.26,222.52 -23.19,16.96 -86.42,39.46 -89.56,39.2 -57.52,-20.62 -78.31,-41.72 -128.34,-59.85l-51.86 89.37 -103.96 -61.84c-60.28,-22.75 -83.35,-48.75 -145.58,-66.54l47.74 -115.8 -120.97 -66.07c-0.81,-121.98 -22.66,-128.76 61.33,-188.14 57.02,-40.32 77.2,-60.06 77.7,-146.97l-57.53 -40.58c8.93,-73.1 47.11,-105.69 73.66,-170.49l112.85 17.37c30.69,-40.13 45.36,-31.6 61.13,-77.06 13.89,-40.01 10.87,-86.66 18.61,-127.53l58.3 -45.41c96.39,-55.71 92.89,10.18 195.76,34.09 9.28,-33.01 0.49,-18.98 21.71,-48.72 25.51,-35.77 16.8,-18.58 34.43,-35.73l145.94 81.36 88.04 60.87 -44.94 97.42zm-3405.46 -287.03c-10.16,-113.42 -17.62,-482.01 14.2,-573.69 46.01,-68.03 397.87,-254.11 495.54,-308.39 395.39,-219.68 886.27,-529.5 1258.6,-728.16 50.05,-26.7 103.53,-33.31 157.57,-10.4 112.5,47.7 96.99,56.86 107.69,84.99l16.75 21.56c58.17,92.58 19.03,2010.98 20.49,2417.29 0.33,92.25 108.59,155.48 133.59,190.64 33.26,146.34 364.96,312.98 470.3,584.43 116.52,300.19 97.24,598.28 60.47,934.86 -69.65,637.73 -127.53,1316.22 -126.39,1960.36l1.28 0c69.19,-183.12 107.13,-286.52 212.42,-424.52 323.07,-423.41 824.98,-246.05 568.46,42.03 -156.81,176.11 -299.51,193.57 -341.41,262.96 4.72,50.95 56.52,-27.22 77.56,57.31 103.04,35.28 113.73,-34.76 174.48,-74.63 84.16,-55.26 151.7,-4.09 165.43,77.19 20.07,118.75 -45.99,123.65 -33.59,260.72 25.28,279.28 -187.96,170.97 -294.1,275 -66.41,65.11 -47.45,105.65 -137.12,155.69 -146.91,81.96 -332.56,-3.01 -413.51,-78.74 -24.77,29.81 -43.06,76.01 -67.49,108.08 -180.58,237.07 -572.82,335.41 -869.32,335.37 -396.82,-0.05 -843.4,-142.19 -950.87,-420.49l-32.78 8.54c-123.4,111.55 -166.62,122.09 -360.43,149.27 -12.6,0.26 -21.12,24.65 -32.65,1.17 -11.11,-22.65 -31.17,12.4 -22.58,-80.02 0.57,-6.19 11.77,-51.05 14.2,-63.92l-76.24 27.47c-57.09,12.7 -37.09,58.36 -120.23,26.9 -48.13,-18.22 -68.7,-55.33 -84.81,-93.55 23.37,-87.76 111.65,-117.78 169.21,-169.47 -120.46,-10.06 -148.67,44.77 -241.05,50.95 -34.21,-43.43 -107.76,-170.02 -114.14,-224.02 -17.86,-22.69 -23.19,39.4 -23.16,-51.71 0,-18.6 3.31,-21.22 13.05,-34.75 18.47,-25.65 55.08,-29.95 80.34,-37.43 24.79,-9.08 36.76,-13.27 64.32,-22.97 19.75,-6.95 29.38,-9.97 43.25,-17.73 26.03,-14.6 9.02,-1.42 27.43,-21.79 -61.26,-21.97 -112.62,-77.66 -117.35,-159.14 -5.95,-102.46 59.35,-112.14 145.49,-131.17 -67.15,-101.96 -212.78,-219.88 -168.82,-416.23 32.51,-145.18 204.77,-150.87 294.83,67.97 162.28,-21.34 222.47,-0.88 267.17,146.03 143.37,-41.53 126.34,45.75 150.08,171.09 21.93,115.75 92.34,143.35 144.37,204.56 44.73,-21.48 27.21,-247.14 27.9,-303.68 1.34,-108.08 -1.66,-189.55 -49.22,-274.83 -75.14,-134.7 -241.04,-214.31 -303.98,-353.17 -36.97,-9.68 -14.69,-16.31 -53.51,-42.08l-87.97 44.87c-113.85,28.64 -233.53,-41.13 -253.72,-136.05 -14.8,-69.61 -4.28,-317.5 -2.91,-403.76 -77.54,-53.45 -274.83,-204.75 -299.88,-265.29 -12.75,-11.54 -20.74,-15.22 -37.63,-40.97 -60.73,-92.6 -42.44,-292.85 -9.89,-383.84 64.42,-179.97 190.5,-155.42 350.23,-91.23l-1.81 -98.18c-71.96,-38.15 -151.81,-115.33 -213.09,-163.54 -72.22,-56.81 -110.16,-107.2 -165.42,-199.73 -28.27,-88.04 -30.12,-197.11 -10.69,-291.98 24.43,-119.25 50.31,-103.65 108.26,-173.63 -96.22,-86.81 -164.54,-99.06 -137.75,-383.78 17.77,-188.79 78.97,-233.25 253.37,-266.15 -108.17,-147.87 -371.63,-266.29 -354.5,-551.42 8.38,-139.49 78.26,-250.63 215.98,-249.99 144.85,0.69 220.78,100.01 305.7,148.92zm-1166.4 -51.94c4.84,-4.08 9.86,-3.49 19.28,-18.4 9.84,-15.54 -3.1,15.2 9.32,-18.58 17.1,-46.54 5,-2.84 6.4,-48.98 63.27,-70.85 209.36,42.67 209.98,41.72 2.28,-3.49 7.4,7.19 11.01,10.89l28.36 14.8c17.17,10.42 13.94,6.12 27.41,17.6 21.85,18.58 7.3,6.78 16.67,22.53 27.59,17.08 51.64,20.75 31.24,79.22 -10.52,30.18 -41.57,41.1 -46.44,71.41 -10.49,65.54 107.74,44.41 35.63,153.29 -36.91,55.69 -107.49,20.18 -111.82,118.99 -4.31,98.99 31.83,56.64 -62.5,141.5l-87.76 -21.29c-38.94,52.47 -21,72.55 -71.88,108.62 -76.94,5.73 -103.44,-34.35 -160.96,-59.95 -70.67,-44.27 -103.47,-43.73 -133.74,-119.52 22.7,-58.85 51.08,-60.9 58.27,-114.34 -29.29,-42.09 -32.69,-26.01 -59.45,-67.19l35.3 -86.66c52.12,-35.09 107.57,-15.84 99.84,-119.91 -25.81,-33.21 -22.88,42.75 -23.55,-42.77l80.88 -80.93c54.86,9.54 24.33,17.62 88.51,17.95zm4452.44 -684.65c-47.5,38.2 -74.36,14.66 -180.12,-15.84 -344.67,-99.34 -454.89,-53.81 -408.49,-271.74 57.75,-47.45 51.24,-59.87 91.18,-104.91l148.13 -158.1c25.52,-24.76 25.09,-30.97 45.01,-57.59 164.54,-219.83 237.29,-145.79 415.34,-97.2 47.6,13 265.43,59.47 298.12,89.92 22.17,18.23 16.12,-15.55 33.44,52.1 14.9,58.28 -13.6,116.52 -52.12,153.13 -84.85,80.64 -299.21,382.21 -390.49,410.23zm-4620.66 -741.22c154.33,-13.73 436.96,-109.03 573.75,-97.2 60.52,64.54 109.09,207.58 149.06,301.95 28.35,66.91 124.89,267.43 124.63,321.28 61.82,65.89 -1.67,212.34 -8.66,219.67 -45.28,30.8 -560.2,132.5 -590.31,117.8 -44.49,-25.03 -19.28,2.73 -49.23,-49.34l-153.21 -356.86c-58.76,-132.87 -115.69,-210.45 -101.82,-354.3 0.6,-6.35 9.02,-55.57 11.87,-61.4 24.89,-51.26 -2.81,-23.88 43.92,-41.6zm-1950.66 8151.47l9144 0 0 -9144 -9144 0 0 9144z"/>
     <path class="fil1" d="M5170.44 3608.44l-51.76 140.08 4.47 8.16 14.63 243.22 24.78 79.52 32.43 111.59 99.87 162.14c41.77,36.48 95.31,82.65 108.95,133.98 27.59,19.91 16.12,9.81 38.84,37.45l50.91 93.44c53.93,190.3 -35.11,297.04 -140.47,429.74 -213.24,268.59 -158.36,260.72 -272.81,498.27 -56.42,519.59 83.22,514.09 93.35,666.74 -10.9,-25.31 -49.34,-59.94 -75.15,-102.65 -133.29,-220.58 -98.08,-313.26 -152.49,-401.33 -183.59,92.63 -985.53,582.34 -1110.6,626.3 62.94,138.86 228.84,218.47 303.98,353.17 47.56,85.28 50.56,166.75 49.22,274.83 -0.69,56.54 16.83,282.2 -27.9,303.68 7.56,130.83 -24.14,287.53 -32.57,261.34 -0.66,-2.02 -3.37,5.71 -5.39,8.33l-4.1 146.68c-13.77,121.98 -18.96,153.95 22.56,253.6 107.47,278.3 554.05,420.44 950.87,420.49 296.5,0.04 688.74,-98.3 869.32,-335.37 24.43,-32.07 42.72,-78.27 67.49,-108.08l20.1 -553.01c-1.14,-644.14 56.74,-1322.63 126.39,-1960.36 36.77,-336.58 56.05,-634.67 -60.47,-934.86 -105.34,-271.45 -437.04,-438.09 -470.3,-584.43 -44.86,20.77 -56.09,48.43 -61.71,40.29 -1.75,-2.54 -5.61,5.17 -8.78,7.24 -56.83,-30.85 -93.89,-95.28 -141.92,-153.84 -68.84,-83.88 -50.04,-96.18 -67.25,-218.16 -48.41,-132.82 -156.38,-16.21 -194.49,51.81z"/>
     <path class="fil0" d="M3854.82 5384.77c-42.35,-43.65 -22.53,-365.97 -13.3,-418.04l305.19 -176.15c1.16,-0.69 47,-26.48 47.4,-26.6 83.6,-24.45 77.17,74.56 77.46,110.02 0.33,38.76 -0.57,78.22 -0.45,117.18 0.12,38.09 1.62,79.46 0.5,117.14 -1.64,54.29 -3.02,74.93 -27.64,96.72 -66.18,31.74 -130.96,73.96 -189,107.89 -44.28,25.88 -160.55,117.04 -200.16,71.84zm550.01 -280.21c-42.68,-15.41 -13.37,19.63 -41.1,-29.59 -15.2,-26.97 -7.57,-136.52 -7.61,-171.44 -0.29,-273.95 -43.18,-214.95 218.18,-355.97 50.5,-27.24 163.81,-126.06 199.75,-61.71l-2.62 403.07c-49.26,50.6 -314.6,197.04 -366.6,215.64zm-557.95 -747.76c101.05,-33.24 308.05,-200.28 398.47,-197.14 17.09,71.51 7.38,177.6 7.61,261.87 0.27,98.64 23.79,159.09 -49.43,208.48 -58.14,39.22 -292.78,181.67 -349.24,167.44 -32.18,-95.72 -16.31,-323 -7.41,-440.65zm520.42 -227.45c-0.24,-89.96 18.57,-78.42 84.2,-114.73 313.25,-173.41 323.41,-238.84 324.08,-31.33 1.23,370.82 22.17,300.16 -175.26,414.3 -64.89,37.5 -157.07,107.22 -232.26,104.51l-0.76 -372.75zm-426.89 39.54c-19.08,26.03 21.22,7.26 -35.61,29.16 -41.53,15.99 -10.66,4.24 -39.73,1.43 -35.77,-56.64 -19.46,-338.84 -16.18,-424l101.54 -37.35c56.2,-35.9 224.01,-149.13 294.42,-151.18 27.98,71.28 14.64,314.44 6.57,404.19 -34.49,26.81 -260.53,170.76 -311.01,177.75zm431.93 -273.31c-24.96,-36.84 -24.55,-36.99 -24.69,-87.58 -0.98,-392.37 -59.05,-308.09 223.04,-462.97 40.12,-22.01 173.27,-133.46 205.48,-63.38l-5.78 409.5c-53.38,49.14 -135.29,84.3 -198.82,122.72 -58.95,35.64 -139.71,101.62 -199.23,81.71zm-517.54 -716.19c31.2,-50.82 41.31,-44.13 96.25,-73.25 183.12,-97.05 290.81,-219.07 316.71,-87.44l0.03 336.48c-13.42,80.95 -2.83,24.53 -27.57,46.27 -50.15,37.61 -133.57,80.98 -187.69,111.64 -219.22,124.2 -205.84,145.49 -205.66,-128.7 0.05,-65.18 -8.97,-148.13 7.93,-205zm1033.99 -16.71c63.41,-39.44 324.78,-201.5 404.76,-208.28l-1.51 430c-40.69,42.57 -138.63,104.31 -202.26,124.91 2.37,-40.97 -1.48,-119.01 5.2,-153.01 14.63,-74.51 28.02,-11.3 36.88,-103.36l-40.51 -14.61c31.35,-89.49 44.91,-5.8 41.41,-111.3 -92.97,31.94 -77.46,42.48 -100.1,139.35 -26.22,112.19 -27.45,-7.13 -24.36,83.67 2.35,69.63 13.32,-43.96 24.14,63.56l2.93 137.64c-64.37,24.95 -57.74,45.08 -105.52,47 -84.79,3.43 -44.58,-311.6 -41.06,-435.57zm-503.99 133.75c-26.57,-15.64 -37.22,-0.01 -34.64,-101.56 0.93,-36.46 0.84,-66.13 -0.3,-102.62 -2.24,-72.22 -8.71,-150.49 11.75,-219.11 0.23,-0.43 380.21,-274.41 417.18,-190.84l-9.68 409.95c-42.32,39.04 -134.74,85.8 -188.43,116.87 -57.19,33.09 -125.56,88.69 -195.88,87.31zm503.34 -734.05c72.75,-41.31 329.21,-217.14 403.48,-193.27 18.86,474.43 24.34,417.57 -174.13,529.69 -40.33,22.79 -70.37,40.49 -110.74,65.06 -4.5,2.72 -52.14,29.12 -57.18,30.43 -55.07,14.25 -17.08,12.98 -47.41,-5.09 -38.8,-64.32 -16.13,-329.52 -14.02,-426.82zm-1078.9 233.59c0.5,-37.02 52.74,-122.97 74.6,-149.23l-4.81 112.37 -69.79 36.86zm79.6 -65.52c15.41,-59.8 10.25,-57.36 45.96,-92.71l47.05 87.43c-90.28,-10.63 -11.68,-7.64 -93.01,5.28zm190.06 -67.13c-80.44,-34.45 -71.29,-32.33 -53.09,-111.45 67.61,23.33 17.39,-9.8 49.38,19.89 2.96,2.76 5.48,5.92 7.54,9.15 1.82,2.91 1.96,6.97 2.93,10.23l-6.76 72.18zm394.75 -330.63c55.36,-22.25 8.45,36.1 98.01,-58.34l0.57 72.94c-39.03,17.39 -37.85,11.7 -69.82,-3.78 15.84,62.4 11.75,25.79 5.36,48.86l-34.12 -59.68zm137.57 -55.39c-0.78,66.09 5.19,3.17 -15.8,30.36 -25.33,-65.66 -15.5,-30.16 5.48,-57.12 5.97,10.23 10.87,-18.91 10.32,26.76zm704.95 -442.25l26.69 -15.01c1.48,-4.85 7.97,2.66 12.04,3.6 18.74,53.3 27.28,41.76 -12.59,81.26 -13.34,16.27 -6.25,13.36 -23.59,27.45 -6.09,4.95 -10.83,8.37 -18.09,12.22 -30.33,16.08 -22,7.98 -50.45,13.13l4.61 -92.44c36.74,-23.26 18.97,-16.08 61.38,-30.21zm87.64 2652.08c-13.64,-51.33 -67.18,-97.5 -108.95,-133.98l-3.89 239.42c-13.44,11.27 -363.62,246.37 -384.39,201.5 -2.14,-4.64 -8.45,-2.26 -18.18,-4.32l1.89 -426.58c71.67,-46.39 228,-141.56 304.7,-172.16l-32.43 -111.59 -35.42 5.16c-23.62,27.05 -72.9,49.53 -110.16,71.68 -230.53,137.02 -95.39,-93.06 -136.59,-380.66 40.18,-40.56 238.55,-144.35 290.05,-167.16 38.11,-68.02 146.08,-184.63 194.49,-51.81 45.27,27.25 29.72,18.48 31.78,-52.06 14,-478.24 -31.02,-1374.56 3.17,-1744.93 -1.36,-2.88 16.79,-54.54 -104.69,17.73l-1499.51 867.09c-104.79,63.96 -76.67,154.67 -76.55,287.12 0.35,342.56 -28.21,2801.48 10.75,2908.81 30.04,32.92 190.4,-75.86 247.66,-110.28l721.8 -417.54c165.4,-92.9 313.21,-186.19 480.78,-278.68 279.37,-154.2 225.32,-67.7 223.69,-546.76z"/>
     <path class="fil2" d="M4639.24 5466.53c128.32,98.53 -21.45,277.52 -101.91,275.2 -132.79,-3.82 -50.67,-258.08 101.91,-275.2zm-263.62 -3267.68c-5,-76.53 15.77,-74.44 70.1,-103.58 67.45,-36.18 285.46,-180.08 310.39,-155.4 58.91,58.33 -353.11,253.77 -380.49,258.98zm154.72 -240.15c-8.85,-65.46 7.54,-85.23 65.08,-96.2 24.91,59.1 1.7,106.88 -65.08,96.2zm-892.16 360.43l-3.38 3986.66 59.11 32.09 87.97 -44.87c68.35,-56.61 1248.42,-734.01 1298.4,-746.98 114.45,-237.55 59.57,-229.68 272.81,-498.27 105.36,-132.7 194.4,-239.44 140.47,-429.74l-50.91 -93.44c-22.72,-27.64 -11.25,-17.54 -38.84,-37.45 1.63,479.06 55.68,392.56 -223.69,546.76 -167.57,92.49 -315.38,185.78 -480.78,278.68l-721.8 417.54c-57.26,34.42 -217.62,143.2 -247.66,110.28 -38.96,-107.33 -10.4,-2566.25 -10.75,-2908.81 -0.12,-132.45 -28.24,-223.16 76.55,-287.12l1499.51 -867.09c121.48,-72.27 103.33,-20.61 104.69,-17.73 21.65,95.7 7.38,1431.31 4.81,1742.05 -0.58,71.16 -4.72,104.44 47.34,151.71l44.26 35.63 -5.78 -2415.86 -16.75 -21.56 -1835.58 1067.52z"/>
     <path class="fil3" d="M3059.79 4555.29c4.3,0.59 209.45,102.48 337.53,-1.59 35.45,-28.79 42.3,-30.83 60.28,-136.53 10.97,-64.59 10.97,-139.19 -2.41,-202.06 -46.72,-263.89 2.72,-156.96 37.54,-308.22 29.91,-129.92 17.65,-255.06 -31.3,-352.96 -49.84,-99.67 -24.14,-614.88 -21.27,-766.67 -84.92,-48.91 -160.85,-148.23 -305.7,-148.92 -137.72,-0.64 -207.6,110.5 -215.98,249.99 -17.13,285.13 246.33,403.55 354.5,551.42 -174.4,32.9 -235.6,77.36 -253.37,266.15 -26.79,284.72 41.53,296.97 137.75,383.78 -57.95,69.98 -83.83,54.38 -108.26,173.63 -19.43,94.87 -17.58,203.94 10.69,291.98z"/>
     <path class="fil4" d="M3440.16 2787.26c-2.87,151.79 -28.57,667 21.27,766.67 48.95,97.9 61.21,223.04 31.3,352.96 -34.82,151.26 -84.26,44.33 -37.54,308.22 59.17,72.73 34.12,246.6 0.94,337.32 -36.95,101.11 -14.85,250.23 -17.83,366.13l1.81 98.18 10.21 35.7c54.45,34.81 47.5,95.89 47.43,171.97 -0.33,389.03 -50.09,203.3 -58.83,364.82 -3.64,67.29 1.6,139.23 -1.64,208.84 -1.37,86.26 -11.89,334.15 2.91,403.76 20.19,94.92 139.87,164.69 253.72,136.05l-59.11 -32.09 3.38 -3986.66c-31.48,-23.3 -48.94,-31.38 -87.5,-51.63 -22.59,-11.85 -22.21,-11.75 -45.51,-25.35 -10.84,-6.33 -16.17,-9.69 -28.85,-16.9l-21.96 -11.68c-31.82,91.68 -24.36,460.27 -14.2,573.69z"/>
     <path class="fil2" d="M1955.81 4271.94c10.87,-98.81 18.18,-140.32 63.28,-222.44 30.95,-56.34 94.1,-111.79 154.93,-139.74l-2.57 73.46c2.74,-4.59 5.05,-10.18 6.8,-14.49 1.69,-4.18 4.38,-9.16 6.26,-14.13l15.35 -61.01c57.8,1.19 84.42,11.75 124.79,45.88 32.81,54.76 2.74,284.28 -106.31,369.16 -114.12,88.84 -55.24,74.98 -211.29,72.67 -22.84,-33.28 -44.82,-65.21 -51.24,-109.36zm109.33 -609.72c3.17,7.99 19.18,130.53 -2.71,153.34l-75.06 72.8c-34.98,14.2 -87.87,-9.55 -122.39,-18.82 7.97,47.83 1.31,33.56 -31.3,83.56 -18.48,28.32 -30.23,46.7 -44.49,86.24 14.13,18.18 17.23,21.34 34.64,41.44 63.4,73.24 2.28,135.71 -8.97,130.48 -17.29,89.21 -1.47,37.15 -55.04,66.35 -25.24,13.77 -34.92,23.66 -62.54,39.63l-1.65 158.5 131.91 -40.89c40.75,99.39 -12.46,149.32 -42.79,224.23l91.25 54.24c55.19,-44.64 8.9,-15.59 40.22,-49.79 34.5,-37.69 11.9,-28.39 64.47,-38.54l-29.12 -31.91c-2.88,-2.49 -8.94,-8.58 -14.56,-10.84l130.84 -21.03c5.09,87.66 21.36,70.96 -13.98,124.06 48.21,4.97 95.72,-17.99 130.19,-44.66 85.66,-66.29 8.87,-127.24 65.61,-199.1l31.94 -26.96c75.47,-57.21 51.99,-23.17 135.38,-11.36 31.9,-49.49 78.27,-113.81 96.21,-180.9l-73.11 -48.31c4.26,-27.47 17.15,-81.83 26.46,-100.69 37.7,-76.15 150.72,-57.98 133.91,-207.08 -8.83,-78.39 2.52,-37.11 -20.8,-54.36 -40.79,36.7 9.04,11.97 -64.4,29.33l-49.99 4.36 -9.36 -108.34 61.64 -126.31c-56.47,-14.44 -61.3,-22.96 -110.09,-54.26 -16.7,62.79 -47.67,107.09 -90.75,144.93 -165.45,-99.9 -62.45,-55.82 -119.33,-110.44 -34.18,40.27 -84.43,61.84 -132.24,71.1z"/>
     <path class="fil5" d="M3747.75 7283.85c51.86,-6.83 91.46,-17.1 137.06,-37.14 -127,-88.68 -302.59,-275.08 -391.38,-423.57 -17.37,-29.05 -32.5,-60.64 -48.54,-97.99 -38.79,-90.34 -10.08,-88.01 0.25,-99.94 32.15,179.87 236.17,433.1 330.51,487.77 5.61,-132.32 -24.67,-163.74 -44.91,-272.72 77.98,53.22 74,200.11 71.81,298.14 38.81,42.02 107.01,93.06 160.6,135.01 43.06,33.73 132.76,80.61 150.01,126.12 -53.93,-15.03 -150.06,-90.21 -185.53,-128.5 -127,17.6 -214.99,67.58 -359.04,34.16 47.99,-39.56 61.83,-5.88 179.16,-21.34zm-302.83 99.81c49.72,13.82 81.22,-8.97 140.81,1.83 48.52,8.79 43.45,19.68 75.67,59.64l32.02 36.12c-6.81,-56.91 -19.15,-59.26 -3.64,-97.68 215.54,-60.59 241.35,9.18 257.03,204.36l10.77 -161.99c62.66,20.98 118.97,70.91 165.15,110.5 2.02,-2.62 4.73,-10.35 5.39,-8.33 8.43,26.19 40.13,-130.51 32.57,-261.34 -52.03,-61.21 -122.44,-88.81 -144.37,-204.56 -23.74,-125.34 -6.71,-212.62 -150.08,-171.09 -44.7,-146.91 -104.89,-167.37 -267.17,-146.03 -90.06,-218.84 -262.32,-213.15 -294.83,-67.97 -43.96,196.35 101.67,314.27 168.82,416.23 -86.14,19.03 -151.44,28.71 -145.49,131.17 4.73,81.48 56.09,137.17 117.35,159.14z"/>
     <path class="fil6" d="M3454.36 2213.57l21.96 11.68c12.68,7.21 18.01,10.57 28.85,16.9 23.3,13.6 22.92,13.5 45.51,25.35 38.56,20.25 56.02,28.33 87.5,51.63l1835.58 -1067.52c-10.7,-28.13 4.81,-37.29 -107.69,-84.99 -54.04,-22.91 -107.52,-16.3 -157.57,10.4 -372.33,198.66 -863.21,508.48 -1258.6,728.16 -97.67,54.28 -449.53,240.36 -495.54,308.39z"/>
     <path class="fil7" d="M6473.9 7672.38c93.06,-25.99 241.13,-201.41 302.78,-294.38 67.23,-101.41 13.25,-85.04 86.45,-124.32 -13.89,149.52 -197.54,306.85 -276.07,388.26 69.88,9.99 132.39,-3.17 175.3,22.31 -32.99,19.81 -38.03,19.82 -107.09,17.48 -185.98,-6.32 -91.18,2.6 -261.87,86.93 -136.94,67.63 -212.69,68.67 -358.85,103.55 16.04,-52.22 -16.77,-31.35 106.17,-52.64 131.46,-22.77 205.7,-76.96 299.36,-110.36 -2.1,-79.19 -23.46,-213.76 25.03,-258.67 14.72,18.03 14.29,-28.25 12.08,46.53 -1.5,50.12 -20.25,69.55 -3.29,175.31zm93.38 -373.85c-299.36,-25.03 -81.62,160.87 -292.06,163.23 -20.79,-15.75 -23.02,21.31 -14.31,-25.55l-150.9 46.25c-10.06,8.87 -7.89,22.1 -25.16,6.44 -50.27,52.25 -14.9,39.44 -44.66,0.01l10.06 -128.16 -1.28 0 -20.1 553.01c80.95,75.73 266.6,160.7 413.51,78.74 89.67,-50.04 70.71,-90.58 137.12,-155.69 106.14,-104.03 319.38,4.28 294.1,-275 -12.4,-137.07 53.66,-141.97 33.59,-260.72 -13.73,-81.28 -81.27,-132.45 -165.43,-77.19 -60.75,39.87 -71.44,109.91 -174.48,74.63z"/>
     <path class="fil8" d="M6377.54 3567.43c23.22,-63.62 7.56,-101.06 55.55,-185.89 35.08,-62.02 74,-107.1 134.28,-142.45 16.72,18.37 11.87,-8.37 15.23,42.28l23.9 -57.22c336.75,-37.22 -74.77,737.59 -228.96,343.28zm231.41 -632.94c-16.39,27.47 -2.88,11.58 -26.5,31.04 -3.07,2.52 -21.17,13.3 -24.69,15.34 -33.38,19.36 -33.9,20.6 -66.23,30.83 1.57,98.84 -4.11,125.15 -52.21,171.85 -47.58,46.22 -61.71,48.2 -129.25,8.42 -12.34,73.6 -43.82,126.74 -105.28,157.29 12.77,10.59 142.16,67.51 45.64,186.03 -63.15,77.54 -133.18,23.35 -98.6,208.81 58.52,6.14 43.18,-18.67 114.47,-15.03 16.73,39.65 35.38,61.35 -12.13,143.56 -26.79,46.37 6.42,13.85 -36.73,39.59l103.96 61.84 51.86 -89.37c2.81,-3.23 6.33,-12.94 7.8,-10.18 6.92,13.1 0.02,-55.05 104.48,-28.47l16.06 98.5c3.14,0.26 66.37,-22.24 89.56,-39.2 83.54,-61.16 -4.09,-152.58 100.26,-222.52 43.99,-29.5 63.79,-2.33 128.87,1.17l74.65 -154.32 -68.61 -55.23c35.75,-207.96 182.63,-112.96 138.98,-306.81 -7.88,-35.03 -0.82,-14.39 -12.85,-33.63 -10.09,10.46 6.99,13.15 -47.99,34.45 -19.38,7.51 -30.14,7.84 -53.52,7.84l-26.38 -56.07 21.05 -45.93 44.94 -97.42 -88.04 -60.87c-19.99,54.03 0.19,6.19 -21.1,42.48 -51.62,87.95 -52.93,94.61 -131.12,78.96 -17.73,-37.16 -15.7,-62.75 -41.35,-102.95z"/>
     <path class="fil9" d="M2494.35 1541.64c0.67,-105.43 -10.01,-157.6 105.53,-138.08 68.42,11.58 55.55,-3.41 67.06,66.94 34.14,208.91 60.62,389.91 -231.86,361.48 14.53,-43.53 21.05,-19.62 58.99,-68.96l-18.39 -11.73c-62.75,-45.31 -29.97,-33.8 -69.67,-78.14 -41.94,-46.82 -83.15,-96.97 -90.07,-189.76 73.8,19.15 79.86,54.3 178.41,58.25zm-388.81 -232.19c-19.23,92.1 71.38,252.82 108.14,336.75 42.94,97.98 94.86,209.14 128.53,300.75 148.36,88.07 68.1,44.6 299.63,9.83 83.86,-12.58 240.58,-40.06 309.35,-67.04l1.79 -54.26c0.26,-53.85 -96.28,-254.37 -124.63,-321.28 -39.97,-94.37 -88.54,-237.41 -149.06,-301.95 -136.79,-11.83 -419.42,83.47 -573.75,97.2z"/>
     <path class="fil9" d="M7903.16 3775.05c59.78,-230.58 403.14,-345.07 404.14,-171.85 0.43,72.82 -40.5,84.45 -130.48,120.23 -78.83,31.33 -184.93,83.62 -273.66,51.62zm178.65 -266.96c-6.63,-157.54 158.79,-239.52 200.31,-172.94 43.03,68.96 -79.46,197 -200.31,172.94zm-324.52 317.58c0.14,59.71 -17.39,61.44 -27.49,121.89 53.75,-5.75 609.84,-168.75 658.65,-217.49l34.32 -38.07c35.67,-111.92 160.37,-503.03 155.03,-604.51 -184.5,40.99 -398.59,127.1 -586.62,186.36 -141.11,44.49 -118.13,102.41 -157.48,238.12 -19.72,68.08 -81.36,248.86 -76.41,313.7z"/>
     <path class="fil5" d="M6050.25 7360.75l-10.06 128.16c29.76,39.43 -5.61,52.24 44.66,-0.01 39.29,-188.61 162.8,-361.96 258.17,-472.51 45.22,-52.42 124.13,-114.23 195.02,-156.19l184.12 -80.12c60.78,-12.42 39.59,-5.35 60.47,9.33 -220.8,82.78 -294.38,100.48 -428.76,252.36 -99.18,112.07 -193.71,262.96 -243.86,440.69l150.9 -46.25c47.09,-59.25 148.91,-168.89 228.81,-194.99 41.9,-69.39 184.6,-86.85 341.41,-262.96 256.52,-288.08 -245.39,-465.44 -568.46,-42.03 -105.29,138 -143.23,241.4 -212.42,424.52z"/>
     <path class="fil10" d="M7170.6 5351.34c211.67,42.04 279.01,29.12 307.7,101.32 6.74,16.98 10.8,39.59 15.18,58.47 19.65,84.52 92.08,311.75 55.62,344.51 -49.44,44.46 -191.1,-99.11 -81.77,-167.95 2.52,-1.59 7.95,-3.92 10.07,-5.12 2.18,-1.21 7.37,-2.51 10.35,-4.87l-37.04 -145.73c-57.14,-17.06 -25.45,-27.22 -198.9,-52.95 12.01,78.12 84.28,256.36 44.25,312.91 -76.22,59.85 -133.38,-55.55 -124.8,-139.81l65.92 -15.32 -66.58 -285.46zm-41.28 517.93c53.57,14.82 86.07,29.8 135.98,43.63 94.8,26.3 365.01,90.8 433.67,86.16l4.4 -46.51c-41.64,-186.93 -77.32,-375.67 -119.66,-558.7 -27.48,-118.84 -80.65,-103.19 -206.72,-133.3 -77.01,-18.4 -199.83,-59.62 -278.23,-57.48 -58.33,-14.23 -34.16,-21.05 -113.9,-21.93 4.64,83.42 50.81,276.18 70.58,358.4l73.88 329.73z"/>
     <path class="fil11" d="M6137.59 1763.09c59.4,53.79 103.81,67.66 201.2,72.03 11.18,-7.4 114.78,-124.08 130.03,-163.81 -6.34,-12.1 -15.47,1.91 -24.37,-28.76 69.26,-59.35 6.74,-23.81 98.49,-66.43 31.18,-14.47 57.85,-45.78 78.78,-65.19 71.71,-66.51 126.61,-63.84 229.64,-29.85 -29.21,31.26 -41.25,55.85 -68.77,82.64 -90.92,-18.55 -81.43,-2.62 -128.44,37.42 23.5,31.52 44.1,31.99 61.69,45.01 -123.68,131.24 -61.12,-2.31 -165.53,84.14 -66.6,55.14 -32.44,90.09 -143.54,138.16 52.63,17.44 270.33,66.77 305,55.59 41.6,-16.12 168.9,-166.66 215.52,-224.2 68.89,-85.05 172.78,-153.46 208.08,-264.63 -32.69,-30.45 -250.52,-76.92 -298.12,-89.92 -178.05,-48.59 -250.8,-122.63 -415.34,97.2 -19.92,26.62 -19.49,32.83 -45.01,57.59l-148.13 158.1c-39.94,45.04 -33.43,57.46 -91.18,104.91z"/>
     <path class="fil10" d="M780.64 3217.38c15.01,-44.25 207.96,-364.87 247.33,-384.81 3.42,69.09 18.21,315.82 -18.56,364.78l-228.77 20.03zm177.63 295.45c-33.33,-34.45 -150.75,-216.9 -160.89,-269l245.4 -22.31 8.67 -350.1c43.19,20.56 78.83,104.53 107.68,150.96 58.31,93.83 79.48,77.08 17.82,171.3 -43.27,66.07 -174.6,287.63 -218.68,319.15zm-37.97 -917.04l55.31 29.04 -325.96 522.25c-31.51,38.16 -28.33,15.66 -75.31,46.48l79.05 28.67c44.23,87.88 162.48,238.46 229.42,369.86 27.78,54.52 24.69,86.64 80.21,108.41 43.68,-15.37 359.57,-539.53 359.14,-579.09 -0.55,-51.81 -203.2,-362.49 -257.71,-456.48 -44.15,-76.16 -39.68,-90.67 -144.15,-69.14z"/>
     <path class="fil7" d="M1673.73 5348.34l4.14 -60.49c61.49,-3.04 48.38,-1.49 69.17,41.96 30.04,-64.99 -15.6,-52.99 42.44,-72.45l145.02 -0.89c64.77,109.1 38.23,71.61 174.46,89.02 29.11,64.09 125.37,299.05 107.64,348.45 -19.26,11.81 16.3,2.57 -33.68,12.78 -21.39,4.38 -33.24,4.45 -55.12,4.93l-347.62 -8.55c-29.67,-52.33 -136.22,-313.17 -106.45,-354.76zm-171.57 -215.95c-9.23,87.83 69.39,270.77 98.87,356.12 19.31,55.86 41.86,110.88 62.18,171.54 17.7,52.78 59.8,117.22 53.46,169.85 50.9,-28.33 207.4,-4.81 293.3,-7.12 107.34,-2.92 235.08,2.9 329.03,-15.5l-3.64 61.56c28.47,-81.15 -64.19,-297.79 -94.07,-380.1 -38.25,-105.43 -86.27,-294.8 -147.89,-360.67 -76.05,-13.99 -529.74,-8.74 -591.24,4.32z"/>
     <path class="fil7" d="M3239.69 7570.04c6.38,54 79.93,180.59 114.14,224.02 92.38,-6.18 120.59,-61.01 241.05,-50.95 -57.56,51.69 -145.84,81.71 -169.21,169.47 16.11,38.22 36.68,75.33 84.81,93.55 83.14,31.46 63.14,-14.2 120.23,-26.9 22.64,-50.74 82.52,-89.96 143.58,-96.98 -24.9,69.43 -77.93,135.31 -47.02,182.33l20.71 29.95c193.81,-27.18 237.03,-37.72 360.43,-149.27 -13.06,-61.7 -97.51,-109.83 -148.33,-141.23 -61.42,-37.94 -110.14,-72.17 -182.46,-110.02 -87.77,-45.92 -314.17,-156.63 -419.38,-152.96 -37.5,6.59 -36.23,12.34 -69.87,-14.51 -24.13,-19.25 -20.29,-35.5 -44.54,-41.49l-4.14 84.99z"/>
     <path class="fil1" d="M3137.4 5532.78c6.52,-3.45 -4.97,-16.99 79.37,-5.88 57.89,7.64 182.67,28.53 225.04,-70.34 30.73,-71.7 39.01,-325.74 8.51,-404.12l-10.21 -35.7c-159.73,-64.19 -285.81,-88.74 -350.23,91.23 -32.55,90.99 -50.84,291.24 9.89,383.84 16.89,25.75 24.88,29.43 37.63,40.97z"/>
     <path class="fil12" d="M2266.53 3131.69c-27.5,-91.7 56.67,-195.28 126.2,-212.71 39.45,-24.44 29.52,-21.6 84.86,-3.69 89.58,216.57 -226.78,395.89 -211.06,216.4zm24.17 -375.33c-5.3,78.57 -10.72,46.46 -49.02,98.05 31.87,204.7 -123.4,180.27 -213.6,106.57l-35.3 86.66c26.76,41.18 30.16,25.1 59.45,67.19l116.37 35.85c1.95,82.56 -19.51,83.99 -52.79,129.24 -45.1,-20.72 -64.35,-45.25 -121.85,-50.75 30.27,75.79 63.07,75.25 133.74,119.52 65.18,-27.31 50.44,-52.96 105.53,-46.2 13.53,21.63 12.3,-2.3 15.82,37.06 0.17,1.95 -4.92,65.09 -5.21,69.54l44.82 -0.45c50.88,-36.07 32.94,-56.15 71.88,-108.62l87.76 21.29c94.33,-84.86 58.19,-42.51 62.5,-141.5 4.33,-98.81 74.91,-63.3 111.82,-118.99 72.11,-108.88 -46.12,-87.75 -35.63,-153.29 4.87,-30.31 35.92,-41.23 46.44,-71.41 20.4,-58.47 -3.65,-62.14 -31.24,-79.22 -39.3,35.64 -101.67,118.37 -89.76,-30.26l45.68 -9.87 -28.36 -14.8 -102.15 -2.94c7.28,55.61 -1.82,56.64 -20.86,101.38 -42.63,-12.42 -62.25,-22.4 -116.04,-44.05z"/>
     <path class="fil13" d="M3444.92 7383.66c-18.41,20.37 -1.4,7.19 -27.43,21.79 -13.87,7.76 -23.5,10.78 -43.25,17.73 -27.56,9.7 -39.53,13.89 -64.32,22.97l-3.69 22.25c73.36,21.17 23.2,6.4 45.77,31.12 121.08,6.47 310.8,93.1 404.65,139.9 163.07,81.32 306.87,193.37 340.05,210 2.42,-29.48 2.47,-54.24 3.57,-83.52 3.57,-94.2 6.14,-67.08 18.36,-82.78l4.1 -146.68c-46.18,-39.59 -102.49,-89.52 -165.15,-110.5l-10.77 161.99c-15.68,-195.18 -41.49,-264.95 -257.03,-204.36 -15.51,38.42 -3.17,40.77 3.64,97.68l-32.02 -36.12c-32.22,-39.96 -27.15,-50.85 -75.67,-59.64 -59.59,-10.8 -91.09,11.99 -140.81,-1.83z"/>
     <path class="fil7" d="M6909.4 4136.99c-6.63,-81.64 45.72,-177.68 131.22,-204.25l-8.47 59.85 31.85 -75.53c113.81,13.57 75.98,136.55 33.62,201.47 -41.71,63.94 -139.03,155.39 -188.22,18.46zm40.8 -352.35c-23.51,64.37 -25.67,38.75 -57.45,89.25 6.52,101.05 -3.98,158.76 -123.91,155.77 33.09,48.67 15.79,50.55 -28.32,83.92l-23.07 15.51 98.87 30.36c16.29,51.83 -20.25,81.73 -40.01,116.99 -52.41,-10.11 -62.83,-27.71 -112.02,-44.22 13.48,73.33 73.05,97.08 141.59,121.39 28.75,-36.75 32.73,-55.67 92.27,-43.11 0.05,15.33 3.43,26.24 -1.38,43.73 -20.41,74.03 -1.71,14.91 -23.5,42.39 102.02,43.36 97.81,-37.88 134.16,-101.96l84.95 26.62c128.29,-126.32 25.26,-60.14 65.23,-169.52 35.39,-96.82 88.54,14.46 122.63,-153.88 -36.64,-54.5 -88.94,-27.15 -35.38,-110.21 46.99,-72.89 57.15,-46.2 -2.45,-125.25 -14.12,30.87 0.86,22.33 -32.9,43.75 -25.42,16.14 -20.81,11.2 -56.14,11.94 -1.19,-61.35 -9.22,-49.62 25.6,-78.82l-3.8 -15.01 -98.46 -3.75c-0.07,70.77 -23.22,90.42 -71.13,115.94l-55.38 -51.83z"/>
     <path class="fil14" d="M4888.79 3162.68c-3.52,123.97 -43.73,439 41.06,435.57 47.78,-1.92 41.15,-22.05 105.52,-47l-2.93 -137.64c-10.82,-107.52 -21.79,6.07 -24.14,-63.56 -3.09,-90.8 -1.86,28.52 24.36,-83.67 22.64,-96.87 7.13,-107.41 100.1,-139.35 3.5,105.5 -10.06,21.81 -41.41,111.3l40.51 14.61c-8.86,92.06 -22.25,28.85 -36.88,103.36 -6.68,34 -2.83,112.04 -5.2,153.01 63.63,-20.6 161.57,-82.34 202.26,-124.91l1.51 -430c-79.98,6.78 -341.35,168.84 -404.76,208.28z"/>
     <path class="fil15" d="M3781.88 6293.01c38.82,25.77 16.54,32.4 53.51,42.08 125.07,-43.96 927.01,-533.67 1110.6,-626.3 54.41,88.07 19.2,180.75 152.49,401.33 25.81,42.71 64.25,77.34 75.15,102.65 -10.13,-152.65 -149.77,-147.15 -93.35,-666.74 -49.98,12.97 -1230.05,690.37 -1298.4,746.98z"/>
     <path class="fil16" d="M4546.02 4125.6c-1.86,142.15 22.91,268.54 -82.07,277.91 -28.69,-78.09 35.34,-78.16 48.05,-113.47l0.31 -200.24 181.31 -103.86c7.99,68.17 6.54,136.06 5.66,202.41 -1.13,85.55 0.25,120.65 -72.48,126.79 -42.34,-118.03 33.76,34.61 38.82,-243.66 -51.21,18.48 -70.91,38.13 -119.6,54.12zm-178.72 3.75l0.76 372.75c75.19,2.71 167.37,-67.01 232.26,-104.51 197.43,-114.14 176.49,-43.48 175.26,-414.3 -0.67,-207.51 -10.83,-142.08 -324.08,31.33 -65.63,36.31 -84.44,24.77 -84.2,114.73z"/>
     <path class="fil2" d="M4135.21 4618.47c-37.85,8.35 8.68,1.93 -30.76,0.14 -54.69,-2.5 47.06,-8.44 -45.57,-3.3l-27.41 62.11c-23.69,-9.81 -14.41,-34.54 -77.31,-50.93 -1.93,-0.5 -7.37,-1.46 -8.95,-1.83 -1.61,-0.36 -6.59,0.06 -9.08,-1.76 -1.69,-30.26 20.14,-6.74 20.07,-59.46 -0.12,-72.98 -72.6,10.48 20.08,-104.12 42.16,-52.14 10.64,-40.74 34.04,-98.45 82.72,-20.34 24.03,32.63 103.06,-55.63 48.57,15.99 -4.53,-13.03 22.45,19.08l25.45 37.54c87.5,-57.78 16.75,19.68 28.22,76.82 15.74,78.31 8.85,42.1 -22.6,80.12 -55.88,67.55 -14.13,15.1 -31.69,99.67zm-288.33 -261.67c-8.9,117.65 -24.77,344.93 7.41,440.65 56.46,14.23 291.1,-128.22 349.24,-167.44 73.22,-49.39 49.7,-109.84 49.43,-208.48 -0.23,-84.27 9.48,-190.36 -7.61,-261.87 -90.42,-3.14 -297.42,163.9 -398.47,197.14z"/>
     <path class="fil17" d="M4986.25 2659.15c36.58,-49.07 217.75,-141.91 244.47,-148.24 21.7,218.57 20.74,221.47 -97.63,286.34 -52.97,29.04 -93.49,64.21 -153.39,76.36l-0.35 -192.36c69.15,15.06 97.13,68.13 138.47,45.84 -2.54,-2.06 -6.45,-4.49 -8.07,-5.51l-123.5 -62.43zm-98.11 -96.77c-2.11,97.3 -24.78,362.5 14.02,426.82 30.33,18.07 -7.66,19.34 47.41,5.09 5.04,-1.31 52.68,-27.71 57.18,-30.43 40.37,-24.57 70.41,-42.27 110.74,-65.06 198.47,-112.12 192.99,-55.26 174.13,-529.69 -74.27,-23.87 -330.73,151.96 -403.48,193.27z"/>
     <path class="fil18" d="M4477.46 4980.41c10.09,-99.25 30.92,-130.1 90.44,-178.46 81.71,-66.37 129.44,-44.06 132.38,63.49 -52.16,37.14 -125.03,101.5 -222.82,114.97zm58.04 -204.68c-11.73,-96.43 9.5,-145.03 104.19,-138.18 9.3,90.25 -16,141.09 -104.19,138.18zm-130.67 328.83c52,-18.6 317.34,-165.04 366.6,-215.64l2.62 -403.07c-59.49,11.44 -333.42,175.94 -391.79,213.17 -2.67,126.05 -23.7,301.13 22.57,405.54z"/>
     <path class="fil19" d="M1829.23 5406.53c23.77,-53.45 32.88,-45.93 107.83,-37.06 21.51,9.51 42.9,26.62 54.29,30.79 27.21,9.99 6.25,-0.67 41.16,-7.05 42.19,108.84 -13.8,-28.59 4.92,61.52 13.98,67.27 42.65,15.01 30.56,192.88 -71.14,7.06 -143.3,21.33 -205.46,-41.4 -29.76,-30.06 -105.35,-172.42 -33.3,-199.68zm-155.5 -58.19c-29.77,41.59 76.78,302.43 106.45,354.76l347.62 8.55c21.88,-0.48 33.73,-0.55 55.12,-4.93 49.98,-10.21 14.42,-0.97 33.68,-12.78 17.73,-49.4 -78.53,-284.36 -107.64,-348.45 -136.23,-17.41 -109.69,20.08 -174.46,-89.02l-145.02 0.89 -12.09 86.7 -103.66 4.28z"/>
     <path class="fil18" d="M4048.82 4043.77c-37.86,38.56 -39.37,39.34 -96.04,40.88l31.69 -55.47 -30.09 -75.03 -1.34 -90.28c200.87,36.16 15.11,-97.41 208.12,-117.04 -6.49,140.19 -39.24,231.61 -112.34,296.94zm-98.39 -305.64c-2.17,3.71 -6.36,4.33 -7.81,10.25 -1.43,5.76 -5.95,7.62 -7.92,9.76 -40.66,44.17 -26.62,8.56 -43.13,52.35 -12.39,32.83 -6.44,77.74 -6.06,114.26 0.81,77.88 -2.1,156.08 0.78,233.82 33.88,20.14 -32.94,20.6 54.12,10.32 50.48,-6.99 276.52,-150.94 311.01,-177.75 8.07,-89.75 21.41,-332.91 -6.57,-404.19 -70.41,2.05 -238.22,115.28 -294.42,151.18z"/>
     <path class="fil20" d="M5399.88 1759.64c-34.19,370.37 10.83,1266.69 -3.17,1744.93 -2.06,70.54 13.49,79.31 -31.78,52.06 17.21,121.98 -1.59,134.28 67.25,218.16 48.03,58.56 85.09,122.99 141.92,153.84 3.17,-2.07 7.03,-9.78 8.78,-7.24 5.62,8.14 16.85,-19.52 61.71,-40.29 -25,-35.16 -133.26,-98.39 -133.59,-190.64 -1.46,-406.31 37.68,-2324.71 -20.49,-2417.29l5.78 2415.86 -44.26 -35.63c-52.06,-47.27 -47.92,-80.55 -47.34,-151.71 2.57,-310.74 16.84,-1646.35 -4.81,-1742.05z"/>
     <path class="fil18" d="M4660.73 3123.89c-143.83,-9.64 -115.95,52.12 -169.76,-2.41 -36.16,-36.66 -41.54,-304.92 172.94,-285.17 47.46,153.43 -29.95,158.84 -3.18,287.58zm-275.93 172.54c70.32,1.38 138.69,-54.22 195.88,-87.31 53.69,-31.07 146.11,-77.83 188.43,-116.87l9.68 -409.95c-76.44,13.92 -131.55,58.07 -200.68,100.63 -65.51,40.34 -127.49,74.41 -195.14,104.83l1.83 408.67z"/>
     <path class="fil21" d="M4987.36 4660.34c-24.95,-38.11 -25.57,-107.05 -17.26,-151.94 20.54,-110.86 228.55,-189.24 273.28,-192.57 8.13,102.58 23.5,201.52 -52.79,247.12 -41.63,24.88 -159.55,99.58 -203.23,97.39zm307.5 -307.19l-99.87 -162.14c-76.7,30.6 -233.03,125.77 -304.7,172.16l-1.89 426.58c9.73,2.06 16.04,-0.32 18.18,4.32 20.77,44.87 370.95,-190.23 384.39,-201.5l3.89 -239.42z"/>
     <path class="fil22" d="M1716.67 5829.9l-41.16 148.39c62.4,31.18 513.1,19.12 608.8,1.93 23.85,-33.9 35.68,-54.27 51.05,-111.38l3.64 -61.56c-93.95,18.4 -221.69,12.58 -329.03,15.5 -85.9,2.31 -242.4,-21.21 -293.3,7.12z"/>
     <path class="fil23" d="M2342.21 1946.95c25.8,71.06 30.4,27.79 14.74,116.42 -11.39,64.44 -19.39,39.51 -2.94,109.58 30.11,14.7 545.03,-87 590.31,-117.8 6.99,-7.33 70.48,-153.78 8.66,-219.67l-1.79 54.26c-68.77,26.98 -225.49,54.46 -309.35,67.04 -231.53,34.77 -151.27,78.24 -299.63,-9.83z"/>
     <path class="fil24" d="M4642.12 3408.49c89.54,-29.99 76.72,130.01 63.45,204.09 -17.13,95.6 -286.47,343.19 -227.85,-53.55 13.09,-88.67 87.31,-124.73 164.4,-150.54zm-269.78 487.09c59.52,19.91 140.28,-46.07 199.23,-81.71 63.53,-38.42 145.44,-73.58 198.82,-122.72l5.78 -409.5c-73.13,15.89 -383.9,218.36 -394.61,200.73 -2.13,-3.5 -8.1,2.61 -14.48,4.28l5.26 408.92z"/>
     <path class="fil25" d="M2494.35 1541.64c-98.55,-3.95 -104.61,-39.1 -178.41,-58.25 6.92,92.79 48.13,142.94 90.07,189.76 39.7,44.34 6.92,32.83 69.67,78.14l18.39 11.73c-37.94,49.34 -44.46,25.43 -58.99,68.96 292.48,28.43 266,-152.57 231.86,-361.48 -11.51,-70.35 1.36,-55.36 -67.06,-66.94 -115.54,-19.52 -104.86,32.65 -105.53,138.08z"/>
     <path class="fil4" d="M2171.45 3983.22c-49.31,134.74 -100.65,246.16 -215.64,288.72 6.42,44.15 28.4,76.08 51.24,109.36 156.05,2.31 97.17,16.17 211.29,-72.67 109.05,-84.88 139.12,-314.4 106.31,-369.16 -40.37,-34.13 -66.99,-44.69 -124.79,-45.88l-15.35 61.01c-1.88,4.97 -4.57,9.95 -6.26,14.13 -1.75,4.31 -4.06,9.9 -6.8,14.49z"/>
     <path class="fil24" d="M3946.28 3269.61l14.83 -42.32 57.25 -11.72c12.26,-70.18 70.78,-72.86 190.71,-84.07l-1.97 216.73c-45.32,36.54 -219.26,148.88 -276.2,145.76 -5.98,-71.63 -14.04,-174.08 15.38,-224.38zm-91.48 -90.22c-16.9,56.87 -7.88,139.82 -7.93,205 -0.18,274.19 -13.56,252.9 205.66,128.7 54.12,-30.66 137.54,-74.03 187.69,-111.64l4.68 -416.89c-130.52,32.97 -256.51,181.72 -390.1,194.83z"/>
     <path class="fil25" d="M958.27 3512.83c44.08,-31.52 175.41,-253.08 218.68,-319.15 61.66,-94.22 40.49,-77.47 -17.82,-171.3 -28.85,-46.43 -64.49,-130.4 -107.68,-150.96l-8.67 350.1 -245.4 22.31c10.14,52.1 127.56,234.55 160.89,269z"/>
     <path class="fil26" d="M6217.44 3912.22c43.15,-25.74 9.94,6.78 36.73,-39.59 47.51,-82.21 28.86,-103.91 12.13,-143.56 -71.29,-3.64 -55.95,21.17 -114.47,15.03 -34.58,-185.46 35.45,-131.27 98.6,-208.81 96.52,-118.52 -32.87,-175.44 -45.64,-186.03 -8.71,-6.83 -21.96,-19.15 -31.31,-22.36 -52.72,-18.1 31.97,3.43 -17.46,-1.97l-18.36 3.77c-0.5,86.91 -20.68,106.65 -77.7,146.97 -83.99,59.38 -62.14,66.16 -61.33,188.14l120.97 66.07 -47.74 115.8c62.23,17.79 85.3,43.79 145.58,66.54z"/>
     <path class="fil25" d="M7478.3 5452.66c-28.69,-72.2 -96.03,-59.28 -307.7,-101.32l66.58 285.46 -65.92 15.32c-8.58,84.26 48.58,199.66 124.8,139.81 40.03,-56.55 -32.24,-234.79 -44.25,-312.91 173.45,25.73 141.76,35.89 198.9,52.95l37.04 145.73c-2.98,2.36 -8.17,3.66 -10.35,4.87 -2.12,1.2 -7.55,3.53 -10.07,5.12 -109.33,68.84 32.33,212.41 81.77,167.95 36.46,-32.76 -35.97,-259.99 -55.62,-344.51 -4.38,-18.88 -8.44,-41.49 -15.18,-58.47z"/>
     <path class="fil27" d="M7757.29 3825.67c-77.22,77.74 -57.75,261.1 135.76,198.9l586.29 -189.05c-10.84,-58.66 -5.4,-49.32 -62.42,-80.91l5.85 -62.61 -34.32 38.07c-48.81,48.74 -604.9,211.74 -658.65,217.49 10.1,-60.45 27.63,-62.18 27.49,-121.89z"/>
     <path class="fil28" d="M1675.51 5978.29l41.16 -148.39c6.34,-52.63 -35.76,-117.07 -53.46,-169.85 -20.32,-60.66 -42.87,-115.68 -62.18,-171.54 -29.48,-85.35 -108.1,-268.29 -98.87,-356.12 -146.98,79.79 -28.28,329.29 7.28,432.15 23.6,68.27 110.15,356.47 166.07,413.75z"/>
     <path class="fil29" d="M8422.77 3692l-5.85 62.61c57.02,31.59 51.58,22.25 62.42,80.91 51.13,-32.97 10.18,4.07 36.04,-39.18 2.95,-4.92 13.23,-34.56 15.4,-41.6 12.25,-39.75 21.43,-66.8 30.95,-97.07l112.71 -415.15c26.73,-96.89 -8.22,-142.78 -96.64,-155.03 5.34,101.48 -119.36,492.59 -155.03,604.51z"/>
     <path class="fil26" d="M6582.6 3281.37c-20.98,134.3 -104.32,256.94 -205.06,286.06 154.19,394.31 565.71,-380.5 228.96,-343.28l-23.9 57.22z"/>
     <path class="fil14" d="M6726.2 2050.67c-26.07,-48.22 -1.49,21.31 -7.72,-40.7 -2.96,-29.55 -1.96,-51.51 -6.71,-85.93 -34.67,11.18 -252.37,-38.15 -305,-55.59l-67.98 -33.33c-97.39,-4.37 -141.8,-18.24 -201.2,-72.03 -46.4,217.93 63.82,172.4 408.49,271.74 105.76,30.5 132.62,54.04 180.12,15.84z"/>
     <path class="fil29" d="M2354.01 2172.95c-16.45,-70.07 -8.45,-45.14 2.94,-109.58 15.66,-88.63 11.06,-45.36 -14.74,-116.42 -33.67,-91.61 -85.59,-202.77 -128.53,-300.75 -36.76,-83.93 -127.37,-244.65 -108.14,-336.75 -46.73,17.72 -19.03,-9.66 -43.92,41.6 -2.85,5.83 -11.27,55.05 -11.87,61.4 -13.87,143.85 43.06,221.43 101.82,354.3l153.21 356.86c29.95,52.07 4.74,24.31 49.23,49.34z"/>
     <path class="fil30" d="M4880.39 3775.6c41.2,287.6 -93.94,517.68 136.59,380.66 37.26,-22.15 86.54,-44.63 110.16,-71.68 3.88,-44.51 12.92,-59.75 -37.94,-55.45l-48.39 36.38c-22.99,-196.95 -15.1,-58.62 -36.11,-158.67 24.77,-18.32 48.32,-29.45 65.56,-60.54 29.96,-54.1 -1.59,-52.55 52.89,-89.62l-4.47 -8.16 2.14 -73.55 -189.27 105.29 -51.16 -4.66z"/>
     <path class="fil31" d="M963.02 3700.5c-55.52,-21.77 -52.43,-53.89 -80.21,-108.41 -66.94,-131.4 -185.19,-281.98 -229.42,-369.86l-79.05 -28.67 -53.17 8.85c0.82,55.67 215.38,407.62 271.69,493.07 50.55,76.71 128.41,67.05 170.16,5.02z"/>
     <path class="fil31" d="M7061.19 5963.73c20.91,34.95 -10.46,7.4 32.79,35.42l347.43 90.4c154.95,38.94 281.18,77.65 261.96,-137l-4.4 46.51c-68.66,4.64 -338.87,-59.86 -433.67,-86.16 -49.91,-13.83 -82.41,-28.81 -135.98,-43.63 -11.36,33.58 -41.67,71.17 -68.13,94.46z"/>
     <path class="fil32" d="M3059.79 4555.29c55.26,92.53 93.2,142.92 165.42,199.73 61.28,48.21 141.13,125.39 213.09,163.54 2.98,-115.9 -19.12,-265.02 17.83,-366.13 33.18,-90.72 58.23,-264.59 -0.94,-337.32 13.38,62.87 13.38,137.47 2.41,202.06 -17.98,105.7 -24.83,107.74 -60.28,136.53 -128.08,104.07 -333.23,2.18 -337.53,1.59z"/>
     <path class="fil33" d="M3958.46 5309.53c-20.48,23.57 28.89,23.4 -30.63,18l-3.98 -322.52c57.22,-32.64 232.96,-146.2 285.01,-153.53 8.85,53.64 20.1,270.23 -10.89,319.93l-239.51 138.12zm-103.64 75.24c39.61,45.2 155.88,-45.96 200.16,-71.84 58.04,-33.93 122.82,-76.15 189,-107.89l4.11 -422.5c-69.94,19.19 -217.17,116.04 -297.38,163.83l-99.44 44.81 3.55 393.59z"/>
     <path class="fil34" d="M7061.19 5963.73c26.46,-23.29 56.77,-60.88 68.13,-94.46l-73.88 -329.73c-19.77,-82.22 -65.94,-274.98 -70.58,-358.4 79.74,0.88 55.57,7.7 113.9,21.93 -62.24,-60.57 -147.45,-29.92 -175.13,43.58 -26.48,70.35 10.6,184.43 25.62,252.82 21.74,98.8 66.13,411.97 111.94,464.26z"/>
     <path class="fil35" d="M6711.77 1924.04c4.75,34.42 3.75,56.38 6.71,85.93 6.23,62.01 -18.35,-7.52 7.72,40.7 91.28,-28.02 305.64,-329.59 390.49,-410.23 38.52,-36.61 67.02,-94.85 52.12,-153.13 -17.32,-67.65 -11.27,-33.87 -33.44,-52.1 -35.3,111.17 -139.19,179.58 -208.08,264.63 -46.62,57.54 -173.92,208.08 -215.52,224.2z"/>
     <path class="fil34" d="M521.17 3202.41l53.17 -8.85c46.98,-30.82 43.8,-8.32 75.31,-46.48l325.96 -522.25 -55.31 -29.04c-84.86,28.56 -83.16,50.43 -128.08,126.02 -34.09,57.33 -59.69,99.03 -92.77,155.49 -47.41,80.9 -156.63,238.83 -178.28,325.11z"/>
     <path class="fil36" d="M6338.79 1835.12l67.98 33.33c111.1,-48.07 76.94,-83.02 143.54,-138.16 104.41,-86.45 41.85,47.1 165.53,-84.14 -17.59,-13.02 -38.19,-13.49 -61.69,-45.01 47.01,-40.04 37.52,-55.97 128.44,-37.42 27.52,-26.79 39.56,-51.38 68.77,-82.64 -103.03,-33.99 -157.93,-36.66 -229.64,29.85 -20.93,19.41 -47.6,50.72 -78.78,65.19 -91.75,42.62 -29.23,7.08 -98.49,66.43 8.9,30.67 18.03,16.66 24.37,28.76 -15.25,39.73 -118.85,156.41 -130.03,163.81z"/>
     <path class="fil6" d="M7903.16 3775.05c88.73,32 194.83,-20.29 273.66,-51.62 89.98,-35.78 130.91,-47.41 130.48,-120.23 -1,-173.22 -344.36,-58.73 -404.14,171.85z"/>
     <path class="fil32" d="M3137.4 5532.78c25.05,60.54 222.34,211.84 299.88,265.29 3.24,-69.61 -2,-141.55 1.64,-208.84 8.74,-161.52 58.5,24.21 58.83,-364.82 0.07,-76.08 7.02,-137.16 -47.43,-171.97 30.5,78.38 22.22,332.42 -8.51,404.12 -42.37,98.87 -167.15,77.98 -225.04,70.34 -84.34,-11.11 -72.85,2.43 -79.37,5.88z"/>
     <path class="fil6" d="M1908.07 3595c64.91,-2.91 96.5,41.7 157.07,67.22 47.81,-9.26 98.06,-30.83 132.24,-71.1 56.88,54.62 -46.12,10.54 119.33,110.44 43.08,-37.84 74.05,-82.14 90.75,-144.93 -51.93,-31.43 -107.33,-66.85 -168.83,-85.83 -17.77,43.45 -31.69,47.29 -47.67,95.41 -149.42,-77.29 -125.15,-87.56 -223.73,-36.01 -75.22,39.36 -44.63,5.21 -59.16,64.8z"/>
     <path class="fil19" d="M4986.25 2659.15l123.5 62.43c1.62,1.02 5.53,3.45 8.07,5.51 -41.34,22.29 -69.32,-30.78 -138.47,-45.84l0.35 192.36c59.9,-12.15 100.42,-47.32 153.39,-76.36 118.37,-64.87 119.33,-67.77 97.63,-286.34 -26.72,6.33 -207.89,99.17 -244.47,148.24z"/>
     <path class="fil36" d="M5057.33 4458.42l98.15 -0.69c-37.19,80.17 -32.07,53.26 -94.4,108.98l-3.75 -108.29zm-69.97 201.92c43.68,2.19 161.6,-72.51 203.23,-97.39 76.29,-45.6 60.92,-144.54 52.79,-247.12 -44.73,3.33 -252.74,81.71 -273.28,192.57 -8.31,44.89 -7.69,113.83 17.26,151.94z"/>
     <path class="fil35" d="M1784.75 4659.08c30.33,-74.91 83.54,-124.84 42.79,-224.23l-131.91 40.89 1.65 -158.5c-47.98,-16.4 -111.1,-46.73 -139.74,-108.2 -38.08,41.06 -24.05,100.91 -22.33,162.03 33.71,32.45 93.2,58.78 129.78,85.26l-42.57 96.44c37.6,50.78 99.34,76.09 162.33,106.31z"/>
     <path class="fil19" d="M4080.93 4536.95c-3.59,4.89 14.79,18.86 -58.48,28.02l-10.3 -76.07 68.78 48.05zm0 0l36.35 -49.98c-23.98,85.16 -8.76,34.59 -36.35,49.98zm-58.28 -48.15c23.26,-49.62 30.44,-69.28 96.18,-69.11l-13.42 39.35c-16.25,-18.06 -0.77,-4.81 -21.24,-18.15l-61.52 47.91zm112.56 129.67c17.56,-84.57 -24.19,-32.12 31.69,-99.67 31.45,-38.02 38.34,-1.81 22.6,-80.12 -11.47,-57.14 59.28,-134.6 -28.22,-76.82l-25.45 -37.54c-26.98,-32.11 26.12,-3.09 -22.45,-19.08 -79.03,88.26 -20.34,35.29 -103.06,55.63 -23.4,57.71 8.12,46.31 -34.04,98.45 -92.68,114.6 -20.2,31.14 -20.08,104.12 0.07,52.72 -21.76,29.2 -20.07,59.46 2.49,1.82 7.47,1.4 9.08,1.76 1.58,0.37 7.02,1.33 8.95,1.83 62.9,16.39 53.62,41.12 77.31,50.93l27.41 -62.11c92.63,-5.14 -9.12,0.8 45.57,3.3 39.44,1.79 -7.09,8.21 30.76,-0.14z"/>
     <path class="fil4" d="M1786.56 3813.04c-54.29,37.7 10.67,-10.18 78.42,56.5 34.52,9.27 87.41,33.02 122.39,18.82l75.06 -72.8c21.89,-22.81 5.88,-145.35 2.71,-153.34 -60.57,-25.52 -92.16,-70.13 -157.07,-67.22 -7.8,57.68 0.54,89.75 -25.22,130.09 -18.72,29.31 -57.28,70.11 -96.29,87.95z"/>
     <path class="fil6" d="M4660.73 3123.89c-26.77,-128.74 50.64,-134.15 3.18,-287.58 -214.48,-19.75 -209.1,248.51 -172.94,285.17 53.81,54.53 25.93,-7.23 169.76,2.41z"/>
     <path class="fil25" d="M780.64 3217.38l228.77 -20.03c36.77,-48.96 21.98,-295.69 18.56,-364.78 -39.37,19.94 -232.32,340.56 -247.33,384.81z"/>
     <path class="fil37" d="M6473.9 7672.38c-16.96,-105.76 1.79,-125.19 3.29,-175.31 2.21,-74.78 2.64,-28.5 -12.08,-46.53 -48.49,44.91 -27.13,179.48 -25.03,258.67 -93.66,33.4 -167.9,87.59 -299.36,110.36 -122.94,21.29 -90.13,0.42 -106.17,52.64 146.16,-34.88 221.91,-35.92 358.85,-103.55 170.69,-84.33 75.89,-93.25 261.87,-86.93 69.06,2.34 74.1,2.33 107.09,-17.48 -42.91,-25.48 -105.42,-12.32 -175.3,-22.31 78.53,-81.41 262.18,-238.74 276.07,-388.26 -73.2,39.28 -19.22,22.91 -86.45,124.32 -61.65,92.97 -209.72,268.39 -302.78,294.38z"/>
     <path class="fil38" d="M4007.06 3399c-40.06,-82.86 18.42,-207.1 124.25,-193.31 33.83,77.42 -14.39,257.02 -124.25,193.31zm11.3 -183.43c-17.05,35.58 7.59,8.18 -27.12,32.64 -5.96,4.21 -32.01,14.44 -44.96,21.4 -29.42,50.3 -21.36,152.75 -15.38,224.38 56.94,3.12 230.88,-109.22 276.2,-145.76l1.97 -216.73c-119.93,11.21 -178.45,13.89 -190.71,84.07z"/>
     <path class="fil29" d="M3884.81 7246.71c-45.6,20.04 -85.2,30.31 -137.06,37.14 -117.33,15.46 -131.17,-18.22 -179.16,21.34 144.05,33.42 232.04,-16.56 359.04,-34.16 35.47,38.29 131.6,113.47 185.53,128.5 -17.25,-45.51 -106.95,-92.39 -150.01,-126.12 -53.59,-41.95 -121.79,-92.99 -160.6,-135.01 2.19,-98.03 6.17,-244.92 -71.81,-298.14 20.24,108.98 50.52,140.4 44.91,272.72 -94.34,-54.67 -298.36,-307.9 -330.51,-487.77 -10.33,11.93 -39.04,9.6 -0.25,99.94 16.04,37.35 31.17,68.94 48.54,97.99 88.79,148.49 264.38,334.89 391.38,423.57z"/>
     <path class="fil26" d="M6266.64 3135c-15.42,18.29 24.04,26.19 -27.76,20.57l71.19 36.4c67.54,39.78 81.67,37.8 129.25,-8.42 48.1,-46.7 53.78,-73.01 52.21,-171.85 -56.9,-13.56 -84.52,-52.95 -145.15,-81.29 -7.74,40.87 -4.72,87.52 -18.61,127.53 -15.77,45.46 -30.44,36.93 -61.13,77.06z"/>
     <path class="fil11" d="M1681.12 3998.97c61.64,8.35 53.41,20.94 108.07,40.37 14.26,-39.54 26.01,-57.92 44.49,-86.24 32.61,-50 39.27,-35.73 31.3,-83.56 -67.75,-66.68 -132.71,-18.8 -78.42,-56.5 -78.75,-82.45 -114.62,16.11 -164.98,126.43 28.1,52.82 32.3,52.24 59.54,59.5z"/>
     <path class="fil28" d="M3358.24 7541.05c105.21,-3.67 331.61,107.04 419.38,152.96 72.32,37.85 121.04,72.08 182.46,110.02 50.82,31.4 135.27,79.53 148.33,141.23l32.78 -8.54c-41.52,-99.65 -36.33,-131.62 -22.56,-253.6 -12.22,15.7 -14.79,-11.42 -18.36,82.78 -1.1,29.28 -1.15,54.04 -3.57,83.52 -33.18,-16.63 -176.98,-128.68 -340.05,-210 -93.85,-46.8 -283.57,-133.43 -404.65,-139.9l-65.08 -0.77c57.99,48.25 48.71,21.37 71.32,42.3z"/>
     <path class="fil39" d="M2392.73 2918.98c-1.42,112.04 -57.97,177.33 -126.2,212.71 -15.72,179.49 300.64,0.17 211.06,-216.4 -55.34,-17.91 -45.41,-20.75 -84.86,3.69z"/>
     <path class="fil40" d="M4546.02 4125.6c48.69,-15.99 68.39,-35.64 119.6,-54.12 -5.06,278.27 -81.16,125.63 -38.82,243.66 72.73,-6.14 71.35,-41.24 72.48,-126.79 0.88,-66.35 2.33,-134.24 -5.66,-202.41l-181.31 103.86 -0.31 200.24c-12.71,35.31 -76.74,35.38 -48.05,113.47 104.98,-9.37 80.21,-135.76 82.07,-277.91z"/>
     <path class="fil41" d="M6137.66 3328.7l18.36 -3.77c49.43,5.4 -35.26,-16.13 17.46,1.97 9.35,3.21 22.6,15.53 31.31,22.36 61.46,-30.55 92.94,-83.69 105.28,-157.29l-71.19 -36.4c51.8,5.62 12.34,-2.28 27.76,-20.57l-112.85 -17.37c-26.55,64.8 -64.73,97.39 -73.66,170.49l57.53 40.58z"/>
     <path class="fil19" d="M3954.38 3954.15c43.67,36.81 10.13,-1.28 39.63,48.03 27.43,45.84 -3.76,34.16 54.81,41.59 73.1,-65.33 105.85,-156.75 112.34,-296.94 -193.01,19.63 -7.25,153.2 -208.12,117.04l1.34 90.28z"/>
     <path class="fil36" d="M1955.81 4271.94c114.99,-42.56 166.33,-153.98 215.64,-288.72l2.57 -73.46c-60.83,27.95 -123.98,83.4 -154.93,139.74 -45.1,82.12 -52.41,123.63 -63.28,222.44z"/>
     <path class="fil28" d="M3854.82 5384.77l-3.55 -393.59 99.44 -44.81c80.21,-47.79 227.44,-144.64 297.38,-163.83l-4.11 422.5c24.62,-21.79 26,-42.43 27.64,-96.72 1.12,-37.68 -0.38,-79.05 -0.5,-117.14 -0.12,-38.96 0.78,-78.42 0.45,-117.18 -0.29,-35.46 6.14,-134.47 -77.46,-110.02 -0.4,0.12 -46.24,25.91 -47.4,26.6l-305.19 176.15c-9.23,52.07 -29.05,374.39 13.3,418.04z"/>
     <path class="fil39" d="M7032.15 3992.59c-31.61,84.07 -54.29,118.76 -122.75,144.4 49.19,136.93 146.51,45.48 188.22,-18.46 42.36,-64.92 80.19,-187.9 -33.62,-201.47l-31.85 75.53z"/>
     <path class="fil19" d="M1839.1 5438.48c2.34,110.73 53.55,215.45 180.48,177.73 55.48,-102.98 -42.88,-164.96 -77.16,-212.3 -79.93,-1.89 -68.59,-9.65 -103.32,34.57z"/>
     <path class="fil19" d="M3987.68 5167.37c-1.34,3.75 -4.17,5.21 -5.28,10.68 -10.73,52.83 -15.89,-11.12 -40.32,52 -16.75,43.32 -1.98,57.8 16.38,79.48l239.51 -138.12 -41.47 -82.93c-2.38,-1.67 -7.15,-4.45 -10.48,-7.01l-32.57 -2.81 -12.33 33.28c-83.42,-21.8 -93.84,-33.59 -113.44,55.43z"/>
     <path class="fil29" d="M4384.8 3296.43l-1.83 -408.67c67.65,-30.42 129.63,-64.49 195.14,-104.83 69.13,-42.56 124.24,-86.71 200.68,-100.63 -36.97,-83.57 -416.95,190.41 -417.18,190.84 -20.46,68.62 -13.99,146.89 -11.75,219.11 1.14,36.49 1.23,66.16 0.3,102.62 -2.58,101.55 8.07,85.92 34.64,101.56z"/>
     <path class="fil25" d="M6377.54 3567.43c100.74,-29.12 184.08,-151.76 205.06,-286.06 -3.36,-50.65 1.49,-23.91 -15.23,-42.28 -60.28,35.35 -99.2,80.43 -134.28,142.45 -47.99,84.83 -32.33,122.27 -55.55,185.89z"/>
     <path class="fil42" d="M4375.62 2198.85c27.38,-5.21 439.4,-200.65 380.49,-258.98 -24.93,-24.68 -242.94,119.22 -310.39,155.4 -54.33,29.14 -75.1,27.05 -70.1,103.58z"/>
     <path class="fil2" d="M4504.86 5706.91c137.43,71.39 241.67,-271.97 84.95,-211.86 -55,21.1 -118.08,141.56 -84.95,211.86z"/>
     <path class="fil6" d="M8081.81 3508.09c120.85,24.06 243.34,-103.98 200.31,-172.94 -41.52,-66.58 -206.94,15.4 -200.31,172.94z"/>
     <path class="fil6" d="M4477.46 4980.41c97.79,-13.47 170.66,-77.83 222.82,-114.97 -2.94,-107.55 -50.67,-129.86 -132.38,-63.49 -59.52,48.36 -80.35,79.21 -90.44,178.46z"/>
     <path class="fil37" d="M3958.46 5309.53c-18.36,-21.68 -33.13,-36.16 -16.38,-79.48 24.43,-63.12 29.59,0.83 40.32,-52 1.11,-5.47 3.94,-6.93 5.28,-10.68 -46.46,-7.57 -28.93,39.53 -36.14,-57.17 -1.5,-20.2 2.12,-67.3 3.67,-88.42l80.92 -41.63 149.85 -85.76c8.99,175.54 20.81,196 -39.96,187.08 3.33,2.56 8.1,5.34 10.48,7.01l41.47 82.93c30.99,-49.7 19.74,-266.29 10.89,-319.93 -52.05,7.33 -227.79,120.89 -285.01,153.53l3.98 322.52c59.52,5.4 10.15,5.57 30.63,-18z"/>
     <path class="fil11" d="M1557.54 4209.04c28.64,61.47 91.76,91.8 139.74,108.2 27.62,-15.97 37.3,-25.86 62.54,-39.63 53.57,-29.2 37.75,22.86 55.04,-66.35 -55.59,-21.79 -98.77,-59.28 -162.24,-70.7l-89.08 62.33c-1.12,1.02 -4.19,3.92 -6,6.15z"/>
     <path class="fil43" d="M4595.55 3706.52l-85.27 34.3 -8.16 -93.73 -1.9 -128.15c60.28,-31.56 105.93,-84.44 174.76,-66.25 19.91,112.26 24.71,223.62 -79.43,253.83zm46.57 -298.03c-77.09,25.81 -151.31,61.87 -164.4,150.54 -58.62,396.74 210.72,149.15 227.85,53.55 13.27,-74.08 26.09,-234.08 -63.45,-204.09z"/>
     <path class="fil26" d="M6600.44 2919.09l8.51 15.4c25.65,40.2 23.62,65.79 41.35,102.95 78.19,15.65 79.5,8.99 131.12,-78.96 21.29,-36.29 1.11,11.55 21.1,-42.48l-145.94 -81.36c-17.63,17.15 -8.92,-0.04 -34.43,35.73 -21.22,29.74 -12.43,15.71 -21.71,48.72z"/>
     <path class="fil28" d="M4372.34 3895.58l-5.26 -408.92c6.38,-1.67 12.35,-7.78 14.48,-4.28 10.71,17.63 321.48,-184.84 394.61,-200.73 -32.21,-70.08 -165.36,41.37 -205.48,63.38 -282.09,154.88 -224.02,70.6 -223.04,462.97 0.14,50.59 -0.27,50.74 24.69,87.58z"/>
     <path class="fil44" d="M4404.83 5104.56c-46.27,-104.41 -25.24,-279.49 -22.57,-405.54 58.37,-37.23 332.3,-201.73 391.79,-213.17 -35.94,-64.35 -149.25,34.47 -199.75,61.71 -261.36,141.02 -218.47,82.02 -218.18,355.97 0.04,34.92 -7.59,144.47 7.61,171.44 27.73,49.22 -1.58,14.18 41.1,29.59z"/>
     <path class="fil4" d="M1652.62 4140.56c63.47,11.42 106.65,48.91 162.24,70.7 11.25,5.23 72.37,-57.24 8.97,-130.48 -17.41,-20.1 -20.51,-23.26 -34.64,-41.44 -54.66,-19.43 -46.43,-32.02 -108.07,-40.37 6,51 -9.87,93.13 -28.5,141.59z"/>
     <path class="fil43" d="M6084.85 7488.9c17.27,15.66 15.1,2.43 25.16,-6.44 50.15,-177.73 144.68,-328.62 243.86,-440.69 134.38,-151.88 207.96,-169.58 428.76,-252.36 -20.88,-14.68 0.31,-21.75 -60.47,-9.33l-184.12 80.12c-70.89,41.96 -149.8,103.77 -195.02,156.19 -95.37,110.55 -218.88,283.9 -258.17,472.51z"/>
     <path class="fil45" d="M2028.08 2960.98c90.2,73.7 245.47,98.13 213.6,-106.57 -57.4,-12.65 -39.52,-19.03 -71.61,-28.36 -67.25,-19.59 -24.79,-28.97 -42.15,15.02 7.73,104.07 -47.72,84.82 -99.84,119.91z"/>
     <path class="fil46" d="M3854.8 3179.39c133.59,-13.11 259.58,-161.86 390.1,-194.83l-4.68 416.89c24.74,-21.74 14.15,34.68 27.57,-46.27l-0.03 -336.48c-25.9,-131.63 -133.59,-9.61 -316.71,87.44 -54.94,29.12 -65.05,22.43 -96.25,73.25z"/>
     <path class="fil47" d="M1942.42 5403.91c34.28,47.34 132.64,109.32 77.16,212.3 -126.93,37.72 -178.14,-67 -180.48,-177.73l-9.87 -31.95c-72.05,27.26 3.54,169.62 33.3,199.68 62.16,62.73 134.32,48.46 205.46,41.4 12.09,-177.87 -16.58,-125.61 -30.56,-192.88 -18.72,-90.11 37.27,47.32 -4.92,-61.52 -34.91,6.38 -13.95,17.04 -41.16,7.05 -11.39,-4.17 -32.78,-21.28 -54.29,-30.79l5.36 34.44z"/>
     <path class="fil45" d="M6784.2 3866.35c-4.38,91.02 -47.2,68.06 -91.01,107.21l75.65 56.1c119.93,2.99 130.43,-54.72 123.91,-155.77l-90.21 -47.1c-23.33,11.2 -18.26,-24.53 -18.34,39.56z"/>
     <path class="fil41" d="M6346.38 2930.41c60.63,28.34 88.25,67.73 145.15,81.29 32.33,-10.23 32.85,-11.47 66.23,-30.83 3.52,-2.04 21.62,-12.82 24.69,-15.34 23.62,-19.46 10.11,-3.57 26.5,-31.04l-8.51 -15.4c-102.87,-23.91 -99.37,-89.8 -195.76,-34.09l-58.3 45.41z"/>
     <path class="fil48" d="M3987.68 5167.37c19.6,-89.02 30.02,-77.23 113.44,-55.43l12.33 -33.28c61.49,-46.56 59.7,-6.4 55.21,-74.94 -26.98,42.08 32.52,20.37 -55.28,27.15l-20.89 -63.68 -56.36 12.96 -80.92 41.63c-1.55,21.12 -5.17,68.22 -3.67,88.42 7.21,96.7 -10.32,49.6 36.14,57.17z"/>
     <path class="fil19" d="M5089.2 4029.13l7.8 -26 40.78 -3.23 -14.63 -243.22c-54.48,37.07 -22.93,35.52 -52.89,89.62 -17.24,31.09 -40.79,42.22 -65.56,60.54 21.01,100.05 13.12,-38.28 36.11,158.67l48.39 -36.38z"/>
     <path class="fil49" d="M4502.12 3647.09l32.77 6.99c-2.58,-104.48 15.01,-153.58 108.94,-144.79 3.96,31.4 9.66,59.82 -5.61,93.68l-45.01 71.1 2.34 32.45c104.14,-30.21 99.34,-141.57 79.43,-253.83 -68.83,-18.19 -114.48,34.69 -174.76,66.25l1.9 128.15z"/>
     <path class="fil50" d="M3940.41 4168.89c-87.06,10.28 -20.24,9.82 -54.12,-10.32 -2.88,-77.74 0.03,-155.94 -0.78,-233.82 -0.38,-36.52 -6.33,-81.43 6.06,-114.26 16.51,-43.79 2.47,-8.18 43.13,-52.35 1.97,-2.14 6.49,-4 7.92,-9.76 1.45,-5.92 5.64,-6.54 7.81,-10.25l-101.54 37.35c-3.28,85.16 -19.59,367.36 16.18,424 29.07,2.81 -1.8,14.56 39.73,-1.43 56.83,-21.9 16.53,-3.13 35.61,-29.16z"/>
     <path class="fil51" d="M6260.91 7436.21c-8.71,46.86 -6.48,9.8 14.31,25.55 210.44,-2.36 -7.3,-188.26 292.06,-163.23 -21.04,-84.53 -72.84,-6.36 -77.56,-57.31 -79.9,26.1 -181.72,135.74 -228.81,194.99z"/>
     <path class="fil22" d="M1993.96 3229.17c57.5,5.5 76.75,30.03 121.85,50.75 33.28,-45.25 54.74,-46.68 52.79,-129.24l-116.37 -35.85c-7.19,53.44 -35.57,55.49 -58.27,114.34z"/>
     <path class="fil28" d="M2127.92 2841.07c17.36,-43.99 -25.1,-34.61 42.15,-15.02 32.09,9.33 14.21,15.71 71.61,28.36 38.3,-51.59 43.72,-19.48 49.02,-98.05 -29.68,1.06 -8.35,5.49 -16.94,-21.04 -64.18,-0.33 -33.65,-8.41 -88.51,-17.95l-80.88 80.93c0.67,85.52 -2.26,9.56 23.55,42.77z"/>
     <path class="fil22" d="M6711.53 4140.2c-32.74,45.44 -58.43,50.36 -47.24,92.02 49.19,16.51 59.61,34.11 112.02,44.22 19.76,-35.26 56.3,-65.16 40.01,-116.99l-98.87 -30.36 -5.92 11.11z"/>
     <path class="fil45" d="M6923.34 3760.8l26.86 23.84 55.38 51.83c47.91,-25.52 71.06,-45.17 71.13,-115.94 -53.38,-29.43 -51.3,-42.32 -119.21,-44.92 -5.21,51.6 -7.37,57.9 -34.16,85.19z"/>
     <path class="fil28" d="M6784.2 3866.35c0.08,-64.09 -4.99,-28.36 18.34,-39.56l90.21 47.1c31.78,-50.5 33.94,-24.88 57.45,-89.25l-26.86 -23.84 -78.08 -22.76c-157.16,128.36 -67.57,119.67 -61.06,128.31z"/>
     <path class="fil22" d="M2273.76 2735.32c8.59,26.53 -12.74,22.1 16.94,21.04 53.79,21.65 73.41,31.63 116.04,44.05 19.04,-44.74 28.14,-45.77 20.86,-101.38 -36.94,-21.99 -66.87,-45.37 -118.84,-49.67 -1.4,46.14 10.7,2.44 -6.4,48.98 -12.42,33.78 0.52,3.04 -9.32,18.58 -9.42,14.91 -14.44,14.32 -19.28,18.4z"/>
     <path class="fil40" d="M2266.53 3131.69c68.23,-35.38 124.78,-100.67 126.2,-212.71 -69.53,17.43 -153.7,121.01 -126.2,212.71z"/>
     <path class="fil52" d="M4504.86 5706.91c-33.13,-70.3 29.95,-190.76 84.95,-211.86 156.72,-60.11 52.48,283.25 -84.95,211.86zm134.38 -240.38c-152.58,17.12 -234.7,271.38 -101.91,275.2 80.46,2.32 230.23,-176.67 101.91,-275.2z"/>
     <path class="fil53" d="M4114.71 3241.66c14.63,54.03 -21.24,161.77 -79.79,130.96 -33.68,-17.7 -28.11,-136.07 79.79,-130.96zm-107.65 157.34c109.86,63.71 158.08,-115.89 124.25,-193.31 -105.83,-13.79 -164.31,110.45 -124.25,193.31z"/>
     <path class="fil40" d="M6909.4 4136.99c68.46,-25.64 91.14,-60.33 122.75,-144.4l8.47 -59.85c-85.5,26.57 -137.85,122.61 -131.22,204.25z"/>
     <path class="fil46" d="M4880.39 3775.6l51.16 4.66 189.27 -105.29 -2.14 73.55 51.76 -140.08c-51.5,22.81 -249.87,126.6 -290.05,167.16z"/>
     <path class="fil54" d="M6711.53 4140.2l5.92 -11.11 23.07 -15.51c44.11,-33.37 61.41,-35.25 28.32,-83.92l-75.65 -56.1c-19.04,16.65 -15.3,1.89 -27.27,32.9 -9.41,24.38 -6.61,40.73 -7.65,64.47 38.36,30.78 44.41,16.49 53.26,69.27z"/>
     <path class="fil55" d="M4535.5 4775.73c88.19,2.91 113.49,-47.93 104.19,-138.18 -94.69,-6.85 -115.92,41.75 -104.19,138.18z"/>
     <path class="fil56" d="M4128 5013.41c-9.35,-17.75 -32.71,25.93 -9.11,-29.79 11.56,-27.29 0.69,-6.47 23.7,-20.19 29.07,58.71 -13.94,45.65 -14.59,49.98zm-91.87 -33.26l56.36 -12.96 20.89 63.68c87.8,-6.78 28.3,14.93 55.28,-27.15 4.49,68.54 6.28,28.38 -55.21,74.94l32.57 2.81c60.77,8.92 48.95,-11.54 39.96,-187.08l-149.85 85.76z"/>
     <path class="fil19" d="M4114.71 3241.66c-107.9,-5.11 -113.47,113.26 -79.79,130.96 58.55,30.81 94.42,-76.93 79.79,-130.96z"/>
     <path class="fil57" d="M3630.71 7979.23l76.24 -27.47c-2.43,12.87 -13.63,57.73 -14.2,63.92 -8.59,92.42 11.47,57.37 22.58,80.02 11.53,23.48 20.05,-0.91 32.65,-1.17l-20.71 -29.95c-30.91,-47.02 22.12,-112.9 47.02,-182.33 -61.06,7.02 -120.94,46.24 -143.58,96.98z"/>
     <path class="fil43" d="M4566.21 3630.48c-17.96,-64.63 -5.4,-69.86 43.82,-87.15 11.56,23.93 26.4,26.4 4.21,63.75 -17.13,28.83 -17.48,19.72 -48.03,23.4zm-31.32 23.6l15.2 20.2 43.12 -0.21 45.01 -71.1c15.27,-33.86 9.57,-62.28 5.61,-93.68 -93.93,-8.79 -111.52,40.31 -108.94,144.79z"/>
     <path class="fil58" d="M1980.69 4624.99c21.6,31.66 59.81,43.79 73.18,60.28 35.34,-53.1 19.07,-36.4 13.98,-124.06l-130.84 21.03c5.62,2.26 11.68,8.35 14.56,10.84l29.12 31.91z"/>
     <path class="fil59" d="M2579.66 3811.85c-32.09,-39.4 -11.56,-17.24 -51.59,-40.84 -37.61,-22.18 -32.21,-22.25 -72.16,-33.81l9.36 108.34 49.99 -4.36c73.44,-17.36 23.61,7.37 64.4,-29.33z"/>
     <path class="fil28" d="M2308.76 2649.36c51.97,4.3 81.9,27.68 118.84,49.67l102.15 2.94c-3.61,-3.7 -8.73,-14.38 -11.01,-10.89 -0.62,0.95 -146.71,-112.57 -209.98,-41.72z"/>
     <path class="fil26" d="M6373.26 3884.69c50.03,18.13 70.82,39.23 128.34,59.85l-16.06 -98.5c-104.46,-26.58 -97.56,41.57 -104.48,28.47 -1.47,-2.76 -4.99,6.95 -7.8,10.18z"/>
     <path class="fil26" d="M6952.46 3134l-106.84 -59.71 -21.05 45.93 26.38 56.07c23.38,0 34.14,-0.33 53.52,-7.84 54.98,-21.3 37.9,-23.99 47.99,-34.45z"/>
     <path class="fil45" d="M2127.7 3348.69c57.52,25.6 84.02,65.68 160.96,59.95l-44.82 0.45c0.29,-4.45 5.38,-67.59 5.21,-69.54 -3.52,-39.36 -2.29,-15.43 -15.82,-37.06 -55.09,-6.76 -40.35,18.89 -105.53,46.2z"/>
     <path class="fil60" d="M3239.69 7570.04l4.14 -84.99c24.25,5.99 20.41,22.24 44.54,41.49 33.64,26.85 32.37,21.1 69.87,14.51 -22.61,-20.93 -13.33,5.95 -71.32,-42.3l65.08 0.77c-22.57,-24.72 27.59,-9.95 -45.77,-31.12l3.69 -22.25c-25.26,7.48 -61.87,11.78 -80.34,37.43 -9.74,13.53 -13.05,16.15 -13.05,34.75 -0.03,91.11 5.3,29.02 23.16,51.71z"/>
     <path class="fil28" d="M6957.5 3675.61c67.91,2.6 65.83,15.49 119.21,44.92l98.46 3.75 -53.05 -35.25c-60.55,-27.14 -126.04,-70.37 -164.62,-13.42z"/>
     <path class="fil61" d="M5061.08 4566.71c62.33,-55.72 57.21,-28.81 94.4,-108.98l-98.15 0.69 3.75 108.29z"/>
     <path class="fil62" d="M1673.73 5348.34l103.66 -4.28 12.09 -86.7c-58.04,19.46 -12.4,7.46 -42.44,72.45 -20.79,-43.45 -7.68,-45 -69.17,-41.96l-4.14 60.49z"/>
     <path class="fil63" d="M2602.19 2756.9c-9.37,-15.75 5.18,-3.95 -16.67,-22.53 -13.47,-11.48 -10.24,-7.18 -27.41,-17.6l-45.68 9.87c-11.91,148.63 50.46,65.9 89.76,30.26z"/>
     <path class="fil64" d="M4530.34 1958.7c66.78,10.68 89.99,-37.1 65.08,-96.2 -57.54,10.97 -73.93,30.74 -65.08,96.2z"/>
     <path class="fil22" d="M6805.88 4353.61c21.93,26.02 29.2,22.33 67.39,43.01 21.79,-27.48 3.09,31.64 23.5,-42.39 4.81,-17.49 1.43,-28.4 1.38,-43.73 -59.54,-12.56 -63.52,6.36 -92.27,43.11z"/>
     <path class="fil65" d="M4078.9 2663.32l6.76 -72.18c-0.97,-3.26 -1.11,-7.32 -2.93,-10.23 -2.06,-3.23 -4.58,-6.39 -7.54,-9.15 -31.99,-29.69 18.23,3.44 -49.38,-19.89 -18.2,79.12 -27.35,77 53.09,111.45z"/>
     <polygon class="fil33" points="4595.55,3706.52 4593.21,3674.07 4550.09,3674.28 4534.89,3654.08 4502.12,3647.09 4510.28,3740.82 "/>
     <path class="fil63" d="M7242.41 3762.42l-63.44 -23.13c-34.82,29.2 -26.79,17.47 -25.6,78.82 35.33,-0.74 30.72,4.2 56.14,-11.94 33.76,-21.42 18.78,-12.88 32.9,-43.75z"/>
     <path class="fil65" d="M5281.94 1875.49c0.23,0.41 49.55,-41.89 0,47.39 -18.96,-24.53 -14.21,-5.68 0,-47.39zm60.37 29.41c-58.87,3.87 -11.61,17.31 -49.36,-11.75l23.22 -58.1c-42.41,14.13 -24.64,6.95 -61.38,30.21l-4.61 92.44c28.45,-5.15 20.12,2.95 50.45,-13.13 7.26,-3.85 12,-7.27 18.09,-12.22 17.34,-14.09 10.25,-11.18 23.59,-27.45z"/>
     <path class="fil65" d="M3809.24 2795.97l69.79 -36.86 4.81 -112.37c-21.86,26.26 -74.1,112.21 -74.6,149.23z"/>
     <path class="fil66" d="M5342.31 1904.9c39.87,-39.5 31.33,-27.96 12.59,-81.26 -4.07,-0.94 -10.56,-8.45 -12.04,-3.6l-26.69 15.01 -23.22 58.1c37.75,29.06 -9.51,15.62 49.36,11.75z"/>
     <path class="fil65" d="M3888.84 2730.45c81.33,-12.92 2.73,-15.91 93.01,-5.28l-47.05 -87.43c-35.71,35.35 -30.55,32.91 -45.96,92.71z"/>
     <path class="fil67" d="M1829.23 5406.53l9.87 31.95c34.73,-44.22 23.39,-36.46 103.32,-34.57l-5.36 -34.44c-74.95,-8.87 -84.06,-16.39 -107.83,37.06z"/>
     <path class="fil56" d="M4566.21 3630.48c30.55,-3.68 30.9,5.43 48.03,-23.4 22.19,-37.35 7.35,-39.82 -4.21,-63.75 -49.22,17.29 -61.78,22.52 -43.82,87.15z"/>
     <path class="fil29" d="M4048.82 4043.77c-58.57,-7.43 -27.38,4.25 -54.81,-41.59 -29.5,-49.31 4.04,-11.22 -39.63,-48.03l30.09 75.03 -31.69 55.47c56.67,-1.54 58.18,-2.32 96.04,-40.88z"/>
     <path class="fil65" d="M4473.65 2332.69l34.12 59.68c6.39,-23.07 10.48,13.54 -5.36,-48.86 31.97,15.48 30.79,21.17 69.82,3.78l-0.57 -72.94c-89.56,94.44 -42.65,36.09 -98.01,58.34z"/>
     <path class="fil68" d="M4080.93 4536.95l-68.78 -48.05 10.3 76.07c73.27,-9.16 54.89,-23.13 58.48,-28.02z"/>
     <path class="fil69" d="M5089.2 4029.13c50.86,-4.3 41.82,10.94 37.94,55.45l35.42 -5.16 -24.78 -79.52 -40.78 3.23 -7.8 26z"/>
     <path class="fil68" d="M4022.65 4488.8l61.52 -47.91c20.47,13.34 4.99,0.09 21.24,18.15l13.42 -39.35c-65.74,-0.17 -72.92,19.49 -96.18,69.11z"/>
     <path class="fil70" d="M3946.28 3269.61c12.95,-6.96 39,-17.19 44.96,-21.4 34.71,-24.46 10.07,2.94 27.12,-32.64l-57.25 11.72 -14.83 42.32z"/>
     <path class="fil37" d="M4142.59 4963.43c-23.01,13.72 -12.14,-7.1 -23.7,20.19 -23.6,55.72 -0.24,12.04 9.11,29.79 0.65,-4.33 43.66,8.73 14.59,-49.98z"/>
     <path class="fil71" d="M4595.42 2307.66c20.99,-27.19 15.02,35.73 15.8,-30.36 0.55,-45.67 -4.35,-16.53 -10.32,-26.76 -20.98,26.96 -30.81,-8.54 -5.48,57.12z"/>
     <path class="fil72" d="M5281.94 1922.88c49.55,-89.28 0.23,-46.98 0,-47.39 -14.21,41.71 -18.96,22.86 0,47.39z"/>
     <path class="fil61" d="M4080.93 4536.95c27.59,-15.39 12.37,35.18 36.35,-49.98l-36.35 49.98z"/>
    </g>
   </g>
  </g>
  <polygon class="fil73" points="-0,0 9144,0 9144,9144 -0,9144 "/>
 </g>
</svg>
