<?xml version="1.0" encoding="UTF-8"?>
<!DOCTYPE svg PUBLIC "-//W3C//DTD SVG 1.1//EN" "http://www.w3.org/Graphics/SVG/1.1/DTD/svg11.dtd">
<!-- Creator: CorelDRAW 2020 (64 Bit) -->
<svg xmlns="http://www.w3.org/2000/svg" xml:space="preserve" width="91.44mm" height="91.44mm" version="1.1" style="shape-rendering:geometricPrecision; text-rendering:geometricPrecision; image-rendering:optimizeQuality; fill-rule:evenodd; clip-rule:evenodd"
viewBox="0 0 9144 9144"
 xmlns:xlink="http://www.w3.org/1999/xlink"
 xmlns:xodm="http://www.corel.com/coreldraw/odm/2003">
 <defs>
  <style type="text/css">
   <![CDATA[
    .fil13 {fill:#30B378}
    .fil11 {fill:#3160BA}
    .fil2 {fill:#3192FD}
    .fil10 {fill:#325DB4}
    .fil45 {fill:#335AA9}
    .fil41 {fill:#3691EB}
    .fil9 {fill:#3789F5}
    .fil28 {fill:#3861AF}
    .fil16 {fill:#46BA88}
    .fil34 {fill:#5E2579}
    .fil50 {fill:#676767}
    .fil47 {fill:#6B8DCF}
    .fil7 {fill:#7A8596}
    .fil14 {fill:#7B95BD}
    .fil51 {fill:#864A90}
    .fil30 {fill:#892D8E}
    .fil20 {fill:#8D0DB1}
    .fil23 {fill:#9ABCFA}
    .fil5 {fill:#A3BEFA}
    .fil6 {fill:#A5C4FA}
    .fil22 {fill:#A704D0}
    .fil32 {fill:#A9662B}
    .fil26 {fill:#A9BCF4}
    .fil21 {fill:#AAC1EB}
    .fil39 {fill:#ABC3F3}
    .fil31 {fill:#AE444E}
    .fil27 {fill:#B801EA}
    .fil54 {fill:#CDF6ED}
    .fil1 {fill:#D4E5FD}
    .fil53 {fill:#D8F8FC}
    .fil4 {fill:#DAE6FE}
    .fil44 {fill:#DAE9FE}
    .fil0 {fill:#DEEBFB}
    .fil40 {fill:#E6FAFB}
    .fil12 {fill:#E765EA}
    .fil48 {fill:#E77677}
    .fil42 {fill:#ED73F0}
    .fil19 {fill:#ED8EF2}
    .fil49 {fill:#EDFBFF}
    .fil3 {fill:#F2615E}
    .fil38 {fill:#F36E71}
    .fil17 {fill:#F37D81}
    .fil24 {fill:#F4FBFD}
    .fil46 {fill:#F6FEFF}
    .fil8 {fill:#F9B559}
    .fil43 {fill:#F9EDD4}
    .fil15 {fill:#FA6666}
    .fil37 {fill:#FAEAFB}
    .fil35 {fill:#FAFCFE}
    .fil52 {fill:#FCC6C9}
    .fil33 {fill:#FCD7D9}
    .fil36 {fill:#FCEAEA}
    .fil18 {fill:#FCFCFB}
    .fil25 {fill:#FEF4FE}
    .fil29 {fill:#FFFBEA}
   ]]>
  </style>
    <clipPath id="id0">
     <rect x="284.36" y="1205.17" width="8552.02" height="6324.32"/>
    </clipPath>
 </defs>
 <g id="Conteúdo_x0020_do_x0020_PowerClip">
  <metadata id="CorelCorpID_0Corel-Layer"/>
  <g id="_1722339703616">
   <g style="clip-path:url(#id0)">
    <image x="284.36" y="1205.17" width="8552.02" height="6324.32" xlink:href="003_Images\003_ImgID1.png"/>
   </g>
   <path class="fil0" d="M4936.5 5765.96c77.44,100.46 42.36,699.96 42.09,701.31 -35.23,170.78 -314.53,108.32 -457.35,107.9 -181.58,-0.55 -299.4,36.23 -383.45,-79.14 -59.11,-109.03 -43.89,-669.86 3.9,-768.31 98.42,-42.55 274.52,-25.95 405.38,-26.5 128.46,-0.55 324.84,-38.22 389.43,64.74zm3083.29 -2277.99l60.97 35.23c63.56,101.68 34,310.84 26.71,442.43l-880.93 2.17c-111.04,158.9 -55.93,100.03 -127.61,127.94l-25.86 -70.57c-59.9,-119.16 -98.96,-21.02 -106.01,-212.51 -3.45,-93.27 3.26,-218.22 6.86,-316.05l1045.87 -8.64zm-2679.58 -1562.44l10.46 485.8c256.27,4.49 514.99,1.71 771.5,1.62 428.17,-0.15 401.39,-56.3 450.52,326.66 -55.78,187.32 -11.47,1397.85 -11.56,1690.6 -26.68,77.89 40.29,55.02 -77.52,43.25 21.31,25.28 -21.5,28.76 127.2,28.06 477.69,-2.2 544.36,-98.21 544.36,651.68 0,216.02 57.74,569.61 -68.62,707.64 -120.43,131.6 -922.99,115.26 -1041.14,12.05 -109.03,-95.28 -60.9,-178.47 -52.49,-332.55l-2606.91 8.14c-2.56,375.56 1.71,275.61 -1007.99,276.77 -206.56,0.25 -413.12,-0.18 -619.69,-0.55 -178.29,-0.33 -489.09,50.66 -571.22,-77.04 -67.89,-109.97 -43.46,-605.5 -18.52,-764.95 -47.85,79.73 -20.28,251.92 -30.86,360.89 -102.66,35.47 -115.1,81.76 -282.96,89.42 -118.7,5.4 -244.44,-2.6 -363.29,-2.29 -411.48,1.07 -213.82,408.98 -204.4,418.46 180.88,182.26 300.59,-134.04 314.07,441.31 5.12,219.07 127.85,401.51 281.77,439.23 182.8,44.77 5534.2,10.01 5884.81,11.04 487.17,1.47 987.89,11.07 1473.36,3.91 215.62,-3.18 355.27,-159.97 374.94,-357.84 26.62,-267.95 -125.38,-345.97 -246.82,-472.23 -221.54,-0.15 -555.37,51.79 -731.65,-37.91 -82.77,-140.78 -60.84,-648.29 -26.56,-809.42 216.35,-60.41 667.2,-54.25 837.08,36.66l16.1 331.76c288.3,7.05 508.83,-109.43 472.75,-408.46 -68.07,-564.03 -1022.39,-176.31 -1382.32,-352.28 -230.84,-112.84 -202.54,-421.97 0.45,-516 186.29,-86.28 601.67,5.58 835.56,-41.35 199.97,-40.14 358.9,-278.45 322.24,-507.09 -80.97,-505.17 -661.47,-240.91 -854.83,-451.92 -78.2,-85.37 -75.06,-184.12 -143.34,-278.39 -88.87,31.38 -253.41,39.19 -404.74,39.1 -121.75,-0.03 -304.03,28.61 -381.47,-43.09 -42.97,6.61 -27.66,14.73 -44.5,-26.75 -47.02,-109.76 -25.34,-258.99 -25.22,-381.71 0.09,-104.4 -39.43,-343.38 55.69,-380.89l-8.08 -25.41c-48.37,-49.71 -49.65,60.42 -38.85,-63.71l441.15 -0.95c-134.47,-100.79 -219.77,-84.14 -437.62,-83.8 -299.88,0.45 -1394.85,-18.82 -1530.84,12.53z"/>
   <path class="fil1" d="M4363.25 5014.53c-176.57,363.47 -751.35,113.47 -562.38,-268.09 175.08,-353.55 741.78,-101.25 562.38,268.09zm-745.57 286.62c516.11,39.44 1187.51,3.53 1721.85,4.44 526.64,0.88 525.14,53.57 530.23,-119.81 5.18,-176.01 -40.83,-495.28 42.25,-604.91 80.11,-105.63 195.56,-59.31 289.22,-115.65l-2588.51 3.14 4.96 832.79z"/>
   <path class="fil2" d="M4524.97 2722.77c-21.88,-31.78 -29.2,-3.99 -23.91,-74.22 0,-0.17 87.12,-307.17 173.2,-339.82 1.62,117.48 -86.87,335.57 -149.29,414.04zm306.97 -59.62c-134.42,76.17 22.24,-109.57 49.57,-164.24 -56,-52.18 -90.78,-71.42 -100.4,-168.85 83.88,37.21 165.32,108.95 190.16,190.58l-139.33 142.51zm-631.17 -158.69c32.94,-60.42 97.79,-160.17 192.5,-161.64 -5.85,79.32 -48.33,106.43 -103.45,156.09 51.98,104.56 95.93,54.61 94.71,188.77 -100.14,-33.96 -155.3,-109.82 -183.76,-183.22zm-270.89 59.62l-5.32 93.52 0.37 95.19c5.68,130.76 16.49,39.05 -22.9,91.54l-1792.59 4.53 1819.65 -1.58 12.53 158.57 26.38 -3.45c121.28,38.57 1086.46,51.62 1208.79,8.01 102.44,-82.71 61.44,-340.19 58.78,-487.53 -3.71,-205.72 8.91,-330.17 -34.39,-501.88 -130.98,-33.11 -765.23,-14.32 -988.3,-15.68 -308.61,-1.92 -303.74,-29.65 -283,558.76z"/>
   <path class="fil0" d="M994.02 3437.67l59.26 32.77c7.92,2.71 13.21,4.49 21.73,6.62 15.79,3.93 53.23,6 70.54,6.65l467.47 -2.63c-333.14,45.41 -167.37,82.68 -287.78,233.33l351.2 3.54c-129.94,49.24 -547.02,-5.23 -652.79,50.85 191.03,-12.85 528.08,-26.03 704.6,4.16l-0.28 34.27c45.87,67.46 40.29,67.71 41.34,176.03 0.96,100.06 28.38,511.39 -40.44,561.7 -23.6,17.24 -631.28,73.26 -724.21,-35.03 -41.93,9.23 -29.34,13.1 -15.39,-29.71l-31.95 -4.39 -21.08 -404.56 -220.63 5.18c-64.15,129.23 35.54,64.29 -87.1,157.64 -50.4,38.37 -88.71,44.37 -104.62,136.22 -74.28,428.73 471.29,323.18 623.93,335.35 73.17,5.83 125.78,22.5 177.65,57.7 84.72,57.56 95.22,90.89 118.19,139.84l645.12 -14.48 1310.02 9.02c-37.01,-36.47 -45.73,-46.09 -142.82,-54.5l-998.49 16.61 -128.36 16.56c-29.65,-53.03 -22.44,-130.06 -21.53,-196.67 0.99,-72.18 0.85,-144.06 0.74,-216.27 -0.17,-143.75 -0.32,-287.5 0.02,-431.25l-38.73 -694.58c-37.22,-60.45 -30.25,-212.09 -35.89,-289.11l0.09 360.78c-38.23,36.42 -40.15,9.88 -80.93,65.99l-39.39 81.64c-55.24,-76.69 -53.91,-102.46 -145.05,-110.92 -163.19,-15.14 -523.7,20.57 -774.44,-8.35z"/>
   <path class="fil3" d="M2233.66 5493.68c46.07,-47.65 7.28,-37.27 206.86,-36.33 170.8,0.79 545.34,-32.66 610.45,36.33 -65.71,33.5 -750.36,31.84 -817.31,0zm0.23 -143.75c87.13,-55.86 663.68,-22.86 813.03,-21.84 -25.86,57.27 76.01,52.74 -199.01,49.35 -167.86,-2.07 -541.38,29.23 -614.02,-27.51zm0.14 -143.75c60.67,-27.28 991.17,-27.76 1056.9,0 -41.88,56.09 -146.58,34.33 -251.34,34.41 -187.46,0.14 -765.77,40.83 -805.56,-34.41zm-0.68 -119.78c76.55,-74 597.3,-32.91 806.19,-34.01 37.86,-0.2 112.31,-4.73 145.39,-1.87l87.32 24c4.05,-6.03 12.88,7.58 18.99,11.88l-130.84 24.39c-174.43,3.96 -860.38,19.44 -927.05,-24.39zm-140.86 70.83c3,218.03 2.6,330.88 -203.06,408.44 -48.36,42.1 -79.91,37.55 -142.84,36.67 -18.2,-0.25 -76.61,-10.47 -119.67,-9.48 18.16,49.49 13.61,17.97 35.91,48.14 47.17,63.89 35.14,-39.25 11.12,17.94l-242.51 2.97c76.2,118.48 364.58,71.16 530.01,71.48 191.65,0.34 383.31,0.73 574.96,0.51 936.84,-1.08 932.88,91.65 935.25,-256.8 -9.79,-178.22 39.28,-424.97 -47.99,-561.39l-24.87 -17.97 -1310.02 -9.02 -94.62 44.11c-27.96,7.61 -57.19,9.82 -98.39,13.1 128.83,73.38 144.23,18.09 196.72,211.3z"/>
   <path class="fil4" d="M3005.24 4367.65c-37.12,69.47 23.26,49.55 -130.93,53.29l-511.5 -2.95c4.95,-139.05 -35.94,-101.22 98.05,-112.96l483.6 6.42c78.18,26.21 27.67,-20.06 60.78,56.2zm73.26 -209.51l-713.99 -9.28 1.44 -209.51 -1.67 -437.22 949.29 12.65c1.64,232.91 43.26,544.58 -3.96,637.11l-231.11 6.25zm-821.01 701.71l998.49 -16.61c97.09,8.41 105.81,18.03 142.82,54.5l24.87 17.97 3.48 -1536.14 -1181.23 9.91 11.57 1470.37z"/>
   <path class="fil5" d="M6332.99 5094.8c-295.6,80.76 -296.42,-274.65 -3.77,-204.84 36.31,83.22 38.03,117.92 3.77,204.84zm-393 582.44c-15.5,-166.33 -2.06,-219.44 89.45,-308.58 114.49,-111.49 156.99,-84.49 280.31,-16.8 60.9,-53.06 222.53,-234.81 279.15,-263.37 146.16,-73.65 216.82,141.86 333.91,197.21 61.89,-832.22 30.25,-729.11 -721.66,-731.48 -334.59,-1.05 -275.7,131.07 -275.87,436.31 -0.09,128.33 -25.33,616.17 14.71,686.71z"/>
   <path class="fil4" d="M5099.97 3689.8c67.2,25.09 68.3,-36.17 65.16,127.19 -2.54,132.63 2.47,94.2 -65.16,116.16 -38.01,-49.24 -37.38,-140.07 -26.49,-187.84 10.92,-47.96 10.27,-30.44 26.49,-55.51zm-95.85 -186.57c43.44,66.61 28.56,162.06 29.46,241.86 1.61,136.87 35,180.76 -77.36,182.68 -19.98,-65.56 -6.99,-156.39 -8.29,-231.33 -2.18,-126.68 -44.15,-169.3 56.19,-193.21zm-186.59 136.11l74.03 -0.14 3.82 289.45 -77.34 1.87 -0.51 -291.18zm-283.03 623.13c110.42,24.37 639.43,25.39 746.28,-1.5l0.6 -780.52c-11.52,-122.18 9.03,-45.41 -26.54,-83.16 -71.65,-53.85 -578.94,-25.38 -711.25,-16.33l-9.09 881.51z"/>
   <path class="fil6" d="M3949.97 3626.81c165.34,12.93 162.79,169.21 43.66,181.58 -49.29,5.12 -88.85,-21.56 -100.08,-73.55 -13.08,-60.47 26.88,-81.97 56.42,-108.03zm263.53 87.89c42.76,95.05 -41.94,193.55 -113.7,228.5 -203.25,98.89 -458.27,-100.57 -346.04,-345.96 43.49,-95.11 148.56,-145.68 226.88,-116.05 -19.12,153.77 -46.04,18.08 -130.84,141.09 -52.38,76 -39.39,165.42 27.62,220.43 42.47,34.84 121.87,50.4 184.07,15.09 132.54,-75.3 -4.95,-120.69 152.01,-143.1zm-608.13 562.66l751.82 4.3 1.67 -897.76 -749.08 -10.18 -4.41 903.64z"/>
   <path class="fil5" d="M5298.05 3006.87c-126.97,103.03 -124.43,78.02 -317.78,75.75 -119.56,-1.41 -239.79,0.26 -359.49,0.14 -171.37,-0.16 -559.12,70.01 -652.78,-80.36l-26.38 3.45c-123.29,58.38 -1201.35,5.89 -1449.55,20.29l-1.24 170.44 3476.22 6.67 -0.63 -178.01c-162.85,-7.67 -547.8,32.76 -668.37,-18.37z"/>
   <path class="fil1" d="M5752.64 3768.69c-29.88,-173.12 115.11,-190.75 178.02,-47.91 -56.48,116.92 -99.84,109.14 -178.02,47.91zm180.22 -290.1c74.45,57.83 145.88,77.42 141.74,210.07 -144.76,-5.37 -53.65,-68.05 -209.31,-134.61 -218.48,-2.32 -224.57,144.35 -150.37,292.65 336,99.52 197.82,-98.41 343.36,-130.19 1.1,1.98 83.53,3.14 -25.36,145.64 -19.69,25.78 -63.75,69.59 -107.33,87.1 -375.19,150.54 -502.67,-530.43 -37.41,-482.01l44.68 11.35zm-467.04 790.87l735.27 2.52 4.16 -886.12 -741.3 -3.29 1.87 886.89z"/>
   <path class="fil7" d="M892.52 6619.71c56.11,39.7 100.88,24.48 182.46,24.53 703.67,1.36 7088.18,40.69 7178.33,-24.53 -86.39,-57.67 -6239.09,-26.83 -6914.8,-25.19 -120.97,0.6 -358.47,-33.95 -445.99,25.19z"/>
   <path class="fil8" d="M4716.62 6010.58c0.15,0.26 75.19,18.91 -12.5,140.25 -170.8,236.28 -538.55,16.75 -416.06,-245.14 27.45,-58.66 122.64,-172.13 219.65,-100.54 -40.02,105.04 11.51,13.72 -73.32,78.95 -99.95,76.88 -90.5,173.23 -29.06,232 160.9,154 243.75,-79.17 311.29,-105.52zm-23.57 -104.81c-59.28,77.99 -114.6,132.43 -239.87,166.05 26.29,-102.38 98.67,-214.12 185.03,-233.93 25.36,-54.64 -8.94,-31.36 45,-66.3 49.37,-32.01 37.89,-11.92 85.62,-16.1 -0.48,87.26 -3.14,102.97 -75.78,150.28zm-523.86 450.49c99.32,45.36 557.14,33.14 680.88,9.37 108.98,-137.98 17.21,-481.7 60.19,-686.74 -59.93,-95.54 -242.14,-60.59 -361.32,-60.08 -121.43,0.51 -284.82,-14.88 -376.13,24.59 -44.34,91.34 -58.46,611.7 -3.62,712.86z"/>
   <path class="fil9" d="M7537.54 5397.84c86.67,-213.79 43.6,-140.07 221.76,-225.27 100.49,69.04 107.98,50.93 154.14,74.27 20.51,129.29 22.29,51.68 56.22,151 -75.15,91.68 -34.18,102.8 -69.38,138.51 -54.7,55.47 19.78,-24.33 -107.64,44.34l-33.34 23.21c-176.74,-90.41 -125.27,-5.86 -168.62,-108.52 -64.38,-152.38 21.68,-17.86 -53.14,-97.54zm-121.14 383.79c34.18,-18.79 11.83,-15.67 78.49,-19.49 626.56,-35.83 628.71,155.38 631.23,-340.33 0.48,-95.99 -33.56,-290.73 42.3,-357.17 -157.61,-84.35 -575.93,-90.07 -776.67,-34.01 -31.81,149.49 -52.15,620.38 24.65,751z"/>
   <path class="fil10" d="M2630.11 2727.24c-11.58,36.53 -21.37,17.69 -46.16,27.67 -66.61,-69.49 -42.67,-59.79 24.34,-95.72 22.16,29.88 56.48,-41.6 21.82,68.05zm-168.63 2.07c-9.45,29.37 -27.42,19.35 -45.92,25.83 -73.66,-68.87 -41.66,-63.07 25.04,-95.67 17.18,24.59 54.67,-35.18 20.88,69.84zm-237.92 -16.98c-21.19,-92.28 2.29,-21.06 25.38,-53 112.23,57.04 32.69,85.31 24.42,94.62 -44.9,-16.1 -36.72,15.34 -49.8,-41.62zm-114.12 136.53l1792.59 -4.53c39.39,-52.49 28.58,39.22 22.9,-91.54 -191.32,0.65 -382.58,0.71 -573.93,0.71 -109.31,0 -446.69,49.52 -497.71,-38.97 24.64,-73.62 -33.65,-41.79 88.03,-59.7l983.24 2.77 5.32 -93.52c-343.61,4.95 -690.22,2.04 -1034.09,1.41 -175.64,-0.34 -351.9,1.5 -527.4,0.37 -273.64,-1.72 -279.41,5.43 -258.95,283z"/>
   <path class="fil10" d="M5433.36 2755.71c-110.19,0.36 -106.76,21.81 -144.54,-41.18 32.68,-48.07 -16.13,-62.84 169.27,-59.79l434.34 -0.45c166.64,-0.37 134.01,24 149.18,60.24 -46.55,62.77 -71.45,41.37 -173.8,39.96l-434.45 1.22zm-1465.36 246.69c93.66,150.37 481.41,80.2 652.78,80.36 119.7,0.12 239.93,-1.55 359.49,-0.14 193.35,2.27 190.81,27.28 317.78,-75.75l-4.79 -136.14c98.22,-80.67 1049.86,-14.43 1135.11,0.2 -45.58,-355.32 -20.74,-303.23 -418,-303.09 -238.01,0.09 -478.05,2.66 -715.83,-1.5l-9.71 -450.74c-37.83,-71.42 -32.23,-53.68 -83.65,-94.6 43.3,171.71 30.68,296.16 34.39,501.88 2.66,147.34 43.66,404.82 -58.78,487.53 -122.33,43.61 -1087.51,30.56 -1208.79,-8.01z"/>
   <path class="fil5" d="M3196.22 3696.81c-82.01,85.88 -149.44,32.52 -127.14,-42.78 17.32,-58.44 111.75,-75.36 127.14,42.78zm-830.27 242.54c105.27,-40.75 178.59,-186.62 290.28,-231.42 163.78,64.49 161.52,196.73 290.63,265.83 115.54,-74.85 69.33,-128.36 212.49,-159.26 35.94,18.85 103.34,73.46 120.69,97.57 53.65,74.62 34.74,135.12 29.57,239.82 47.22,-92.53 5.6,-404.2 3.96,-637.11l-949.29 -12.65 1.67 437.22z"/>
   <path class="fil11" d="M6309.75 5351.86c32.69,68.14 162.37,178.07 225.14,240.21 68.11,67.49 153.22,210.3 287.61,185.52 100.96,-23.6 102.49,-70.41 104.56,-210.7 1.35,-91.43 -0.34,-190.19 -4.25,-281.19 -117.09,-55.35 -187.75,-270.86 -333.91,-197.21 -56.62,28.56 -218.25,210.31 -279.15,263.37z"/>
   <path class="fil12" d="M1485.4 3971.15c36.79,53.43 9.88,74.59 72.08,156.91 -105.38,255.69 -42.28,121.96 -218.97,226.46 -110.53,-71.11 -18.56,-33.3 -162.37,-64.68 -6.59,-106.26 24.42,-81.39 -44.85,-105.72 -96.24,23.48 -80.45,40.66 -135.26,96.97 -4.53,-67.91 -21.22,-144.77 9.37,-180.93l-16.13 380.06c-13.95,42.81 -26.54,38.94 15.39,29.71 163.42,12.06 568.8,25.47 696.59,-17.57l26.72 -685.13 0.28 -34.27c-106.03,77.9 -144.26,37.27 -327.14,84.24l71.08 98.25c2.01,-4.27 8.97,10.33 13.21,15.7z"/>
   <path class="fil13" d="M1751.96 3193.69c44.82,-37.41 -6,-56.45 60.25,0 -40.16,31.07 9.76,54.36 -60.25,0zm-155.94 0c5.91,-3.68 12.59,-12.71 15.79,-13.75l32.85 0c2.74,-7.64 10.95,9.53 16.84,13.75 -5.92,3.93 -13.45,12.14 -16.78,13.16 -121.54,36.7 -4.02,20.03 -48.7,-13.16zm-624.04 196.75l22.04 47.23c250.74,28.92 611.25,-6.79 774.44,8.35 91.14,8.46 89.81,34.23 145.05,110.92l39.39 -81.64c40.78,-56.11 42.7,-29.57 80.93,-65.99l-0.09 -360.78 -81.07 -53.17c-91.14,65.14 -325.39,14.96 -392.36,84.77 -58.18,60.59 -13.25,14.27 -30.74,77.96 -51.35,187.27 -64.77,54.19 -88.51,198.45l162.94 4.98c-187.67,0 -463.68,-35.94 -632.02,28.92z"/>
   <path class="fil14" d="M5939.99 5677.24c64.69,169.9 201.85,124.65 405.79,124.37 129.14,-0.17 393.95,41.74 476.72,-24.02 -134.39,24.78 -219.5,-118.03 -287.61,-185.52 -62.77,-62.14 -192.45,-172.07 -225.14,-240.21 -123.32,-67.69 -165.82,-94.69 -280.31,16.8 -91.51,89.14 -104.95,142.25 -89.45,308.58z"/>
   <path class="fil15" d="M7596.11 3732.72c32.49,19.89 24.22,3.03 32.4,47.68 -72.61,2.63 -67.49,6.4 -32.4,-47.68zm-148.25 58.15c-77.59,-82.09 -6.79,-46.21 0,-57.7 3.57,5.81 12.31,12.65 13.28,15.54 36.02,106.14 15.47,10.02 -13.28,42.16zm-116.81 4.9c-101.58,-19.87 -108.37,-47.68 -9.62,-66.19l9.62 66.19zm-337.67 168.48l805.93 -9.37c8.1,-72.38 7.25,-117.77 6.14,-186.39 -1.52,-91.46 -10.35,-116.5 22.16,-170.52l-56.56 -32.68 -587.09 64.18 11.69 163.19c-80.42,41.2 -70.23,11.88 -134.86,46.74 -74.71,40.24 58.18,21.76 -87.92,62.62l109.56 30.08c-126.99,9 -57.89,7.47 -89.05,32.15z"/>
   <path class="fil10" d="M4239 4940.1c2.57,129.49 -44.77,178.67 -303.35,113.45 -35.88,-93.35 -39.53,-111.58 62.79,-133.79 85.12,-18.48 174.65,0.73 240.56,20.34zm-212.85 -76.51c-46.5,-91.15 -28.64,-178.78 104.58,-148.65 31.5,49.16 42.19,80.23 1.05,152.81l-105.63 -4.16zm337.1 150.94c179.4,-369.34 -387.3,-621.64 -562.38,-268.09 -188.97,381.56 385.81,631.56 562.38,268.09z"/>
   <path class="fil16" d="M1200.45 3222.04c-97.2,-11.77 -37.32,20.55 -62.06,-61.37 73.32,28.12 42.05,-18.37 62.06,61.37zm-228.47 168.4c168.34,-64.86 444.35,-28.92 632.02,-28.92l-162.94 -4.98c23.74,-144.26 37.16,-11.18 88.51,-198.45 17.49,-63.69 -27.44,-17.37 30.74,-77.96 66.97,-69.81 301.22,-19.63 392.36,-84.77l-979.53 5.43 -1.16 389.65z"/>
   <path class="fil17" d="M1414.26 4952.16c-23.14,147.94 -45.81,607.71 17.18,709.75l242.51 -2.97c24.02,-57.19 36.05,45.95 -11.12,-17.94 -22.3,-30.17 -17.75,1.35 -35.91,-48.14 43.06,-0.99 101.47,9.23 119.67,9.48 62.93,0.88 94.48,5.43 142.84,-36.67 -270.15,7.55 -463.79,-187.78 -317.81,-438.1 45.45,-77.93 137.47,-134.61 266.42,-124.9 140.04,10.5 164.69,95.9 254.45,154.56 -52.49,-193.21 -67.89,-137.92 -196.72,-211.3 41.2,-3.28 70.43,-5.49 98.39,-13.1l94.62 -44.11 -645.12 14.48 -29.4 48.96z"/>
   <path class="fil14" d="M2365.95 3939.35l-1.44 209.51 713.99 9.28 -131.64 -184.38c-129.11,-69.1 -126.85,-201.34 -290.63,-265.83 -111.69,44.8 -185.01,190.67 -290.28,231.42z"/>
   <path class="fil18" d="M1671.4 5421.81c-0.42,-95.51 51.59,-113.76 146.58,-115.23 105.38,-1.67 147.26,9.54 139.36,115.23 -74.14,55.74 -216.5,49.37 -285.94,0zm77.87 -284.93c52.86,-19.1 82.89,-17.57 132.49,5.21 18.51,104.44 -9.39,137.49 -111.07,134.07 -23.77,-44.43 -36.92,-70.32 -21.42,-139.28zm140.16 428.79c205.66,-77.56 206.06,-190.41 203.06,-408.44 -89.76,-58.66 -114.41,-144.06 -254.45,-154.56 -128.95,-9.71 -220.97,46.97 -266.42,124.9 -145.98,250.32 47.66,445.65 317.81,438.1z"/>
   <path class="fil19" d="M957.32 4475.83l31.95 4.39 16.13 -380.06c-30.59,36.16 -13.9,113.02 -9.37,180.93 54.81,-56.31 39.02,-73.49 135.26,-96.97l55.95 -186.59c59.42,-81.84 -8.21,25.86 115.73,-47.63 118,-69.95 -48.42,16.27 35.54,-27.19 83.05,54.02 3.37,65.31 146.89,48.44 -4.24,-5.37 -11.2,-19.97 -13.21,-15.7l-71.08 -98.25c182.88,-46.97 221.11,-6.34 327.14,-84.24 -176.52,-30.19 -513.57,-17.01 -704.6,-4.16 -91.99,63.44 -60.9,162.37 -63.75,311.24 -2.44,126.86 -13.16,271.26 -2.58,395.79z"/>
   <path class="fil20" d="M7341.24 2541.7c29.49,220.88 42.02,200.62 -45.3,214.8 -17.72,2.86 -48.42,2.89 -67.12,1.07 -74.14,-7.21 -80.82,-20.54 -89.71,-90.94 76.83,-79.69 53.43,-12.62 136.08,-69.3l-121.36 -26.55c21.59,-40.46 -39.31,-39.07 23.71,-32.82l-106.96 54.05c-39.65,-119.33 2.06,-38.06 -49.01,-69.33l92.95 233.9 -81.29 0.54c45.24,76.69 10.64,53.91 135.17,44.37 -4.95,4.95 -13.19,4.47 -15.7,13.95 -1.28,4.73 -75.13,103.74 -147.12,126.24 -94.06,29.34 -215.82,-9.37 -288.38,31.18 15.62,38.48 1.42,30.96 41.29,24.82l656.1 -12.23c71.02,-138.88 57.67,-534.25 36.56,-708.3l-31.05 -31.73 -9.59 34.73c-0.62,4.86 -2.12,12.39 -2.49,17.94 -0.39,5.8 -0.25,12.64 -0.34,18.9 0,1.02 4.98,52.72 5.49,62.48 2.58,50.4 0.17,93.27 -1.72,143.41 -27.11,21.9 35.06,21.11 -70.21,18.82z"/>
   <path class="fil17" d="M6892.65 4063.71l43.94 -38.2c3.31,-3.39 8.58,-9.56 12.08,-13.24 23.86,-24.87 16.76,-22.72 44.71,-48.02 31.16,-24.68 -37.94,-23.15 89.05,-32.15l-109.56 -30.08c146.1,-40.86 13.21,-22.38 87.92,-62.62 64.63,-34.86 54.44,-5.54 134.86,-46.74l-11.69 -163.19 587.09 -64.18 -970.4 8.01c-3.34,90.77 -9.56,206.71 -6.37,293.24 6.54,177.68 42.79,86.62 98.37,197.17z"/>
   <path class="fil21" d="M6345.72 4479.65c109.31,10.93 47.17,32.15 71.93,-40.12 0.08,-271.63 -41.03,-1394.8 10.72,-1568.6 -85.25,-14.63 -1036.89,-80.87 -1135.11,-0.2l1056.22 -6.82 -3.76 1615.74z"/>
   <path class="fil22" d="M6989.82 2444.69l31.75 77.99c51.07,31.27 9.36,-50 49.01,69.33l106.96 -54.05 163.7 3.74c105.27,2.29 43.1,3.08 70.21,-18.82 1.89,-50.14 4.3,-93.01 1.72,-143.41 -0.51,-9.76 -5.49,-61.46 -5.49,-62.48 0.09,-6.26 -0.05,-13.1 0.34,-18.9 0.37,-5.55 1.87,-13.08 2.49,-17.94l9.59 -34.73 -690.87 -7.47c7.1,5.49 17.77,2.44 23.23,13.67 18.82,38.54 173.97,33.08 217.21,32.23 80.19,-1.55 141.91,2.49 219.33,5.63 -124.68,80.65 -110.41,57.98 -118.65,162.49l-80.53 -7.28z"/>
   <path class="fil22" d="M6717.2 2972.86c72.56,-40.55 194.32,-1.84 288.38,-31.18 71.99,-22.5 145.84,-121.51 147.12,-126.24 2.51,-9.48 10.75,-9 15.7,-13.95 -124.53,9.54 -89.93,32.32 -135.17,-44.37l-25.22 -55.83c-212.51,-6.45 -65.11,61.55 -220.15,49.04l68.4 -191.26c-65.94,24.42 -54.99,-59.71 -66.08,26.74l-39.08 89.19c-21.98,-138.45 -33.56,-276.18 -5.63,-409.71 -88.26,34.8 -51.58,256.54 -51.67,353.4 -0.11,113.87 -20.23,252.33 23.4,354.17z"/>
   <path class="fil23" d="M3924.93 2752.79l-0.37 -95.19 -983.24 -2.77c-121.68,17.91 -63.39,-13.92 -88.03,59.7 51.02,88.49 388.4,38.97 497.71,38.97 191.35,0 382.61,-0.06 573.93,-0.71z"/>
   <path class="fil24" d="M7763.89 5489.69c-160.76,-52.38 -142.17,-201.64 48.19,-187.52l45.13 118.14 -93.32 69.38zm-226.35 -91.85c74.82,79.68 -11.24,-54.84 53.14,97.54 43.35,102.66 -8.12,18.11 168.62,108.52l33.34 -23.21c127.42,-68.67 52.94,11.13 107.64,-44.34 35.2,-35.71 -5.77,-46.83 69.38,-138.51 -33.93,-99.32 -35.71,-21.71 -56.22,-151 -46.16,-23.34 -53.65,-5.23 -154.14,-74.27 -178.16,85.2 -135.09,11.48 -221.76,225.27z"/>
   <path class="fil25" d="M1403.6 4064.22c121.16,232.29 -255.7,222.56 -127.26,-9l127.26 9zm-272.31 119.9c69.27,24.33 38.26,-0.54 44.85,105.72 143.81,31.38 51.84,-6.43 162.37,64.68 176.69,-104.5 113.59,29.23 218.97,-226.46 -62.2,-82.32 -35.29,-103.48 -72.08,-156.91 -143.52,16.87 -63.84,5.58 -146.89,-48.44 -83.96,43.46 82.46,-42.76 -35.54,27.19 -123.94,73.49 -56.31,-34.21 -115.73,47.63l-55.95 186.59z"/>
   <path class="fil10" d="M2946.86 3973.76l131.64 184.38 231.11 -6.25c5.17,-104.7 24.08,-165.2 -29.57,-239.82 -17.35,-24.11 -84.75,-78.72 -120.69,-97.57 -143.16,30.9 -96.95,84.41 -212.49,159.26z"/>
   <path class="fil10" d="M4213.5 3714.7c-156.96,22.41 -19.47,67.8 -152.01,143.1 -62.2,35.31 -141.6,19.75 -184.07,-15.09 -67.01,-55.01 -80,-144.43 -27.62,-220.43 84.8,-123.01 111.72,12.68 130.84,-141.09 -78.32,-29.63 -183.39,20.94 -226.88,116.05 -112.23,245.39 142.79,444.85 346.04,345.96 71.76,-34.95 156.46,-133.45 113.7,-228.5z"/>
   <path class="fil26" d="M5865.29 3554.05l-0.08 -88.93 67.65 13.47 -44.68 -11.35c-465.26,-48.42 -337.78,632.55 37.41,482.01 43.58,-17.51 87.64,-61.32 107.33,-87.1 108.89,-142.5 26.46,-143.66 25.36,-145.64 -145.54,31.78 -7.36,229.71 -343.36,130.19 -74.2,-148.3 -68.11,-294.97 150.37,-292.65z"/>
   <path class="fil27" d="M6856.26 2559.07c53.82,-56.14 -5.13,-72.78 133.56,-114.38l80.53 7.28c8.24,-104.51 -6.03,-81.84 118.65,-162.49 -77.42,-3.14 -139.14,-7.18 -219.33,-5.63 -43.24,0.85 -198.39,6.31 -217.21,-32.23 -5.46,-11.23 -16.13,-8.18 -23.23,-13.67l8.74 3.77 7.5 23.57c-27.93,133.53 -16.35,271.26 5.63,409.71l39.08 -89.19c11.09,-86.45 0.14,-2.32 66.08,-26.74z"/>
   <path class="fil28" d="M7416.4 5781.63c163.55,83.22 473.3,35.03 678.85,35.18l85.09 -23.69 3.02 -420.66 -14.94 -307.82c-75.86,66.44 -41.82,261.18 -42.3,357.17 -2.52,495.71 -4.67,304.5 -631.23,340.33 -66.66,3.82 -44.31,0.7 -78.49,19.49z"/>
   <path class="fil29" d="M4716.62 6010.58c-67.54,26.35 -150.39,259.52 -311.29,105.52 -61.44,-58.77 -70.89,-155.12 29.06,-232 84.83,-65.23 33.3,26.09 73.32,-78.95 -97.01,-71.59 -192.2,41.88 -219.65,100.54 -122.49,261.89 245.26,481.42 416.06,245.14 87.69,-121.34 12.65,-139.99 12.5,-140.25z"/>
   <path class="fil30" d="M1004.66 4509.93c92.93,108.29 700.61,52.27 724.21,35.03 68.82,-50.31 41.4,-461.64 40.44,-561.7 -1.05,-108.32 4.53,-108.57 -41.34,-176.03l-26.72 685.13c-127.79,43.04 -533.17,29.63 -696.59,17.57z"/>
   <path class="fil23" d="M5288.82 2714.53c37.78,62.99 34.35,41.54 144.54,41.18l434.45 -1.22c102.35,1.41 127.25,22.81 173.8,-39.96 -15.17,-36.24 17.46,-60.61 -149.18,-60.24l-434.34 0.45c-185.4,-3.05 -136.59,11.72 -169.27,59.79z"/>
   <path class="fil31" d="M6993.38 3964.25c-27.95,25.3 -20.85,23.15 -44.71,48.02 -3.5,3.68 -8.77,9.85 -12.08,13.24l-43.94 38.2 23.99 65.48c66.5,-25.89 15.37,28.72 118.4,-118.7l817.36 -2.01c6.76,-122.1 34.18,-316.17 -24.79,-410.51 -32.51,54.02 -23.68,79.06 -22.16,170.52 1.11,68.62 1.96,114.01 -6.14,186.39l-805.93 9.37z"/>
   <path class="fil32" d="M4169.19 6356.26c77.98,107.05 187.3,72.92 355.78,73.43 132.51,0.4 391.66,58.35 424.34,-100.11 0.26,-1.25 32.8,-557.48 -39.05,-650.69 -42.98,205.04 48.79,548.76 -60.19,686.74 -123.74,23.77 -581.56,35.99 -680.88,-9.37z"/>
   <path class="fil5" d="M2362.81 4417.99l511.5 2.95c154.19,-3.74 93.81,16.18 130.93,-53.29 -33.11,-76.26 17.4,-29.99 -60.78,-56.2l-483.6 -6.42c-133.99,11.74 -93.1,-26.09 -98.05,112.96z"/>
   <path class="fil33" d="M2233.35 5086.4c66.67,43.83 752.62,28.35 927.05,24.39l130.84 -24.39c-6.11,-4.3 -14.94,-17.91 -18.99,-11.88l-87.32 -24c-33.08,-2.86 -107.53,1.67 -145.39,1.87 -208.89,1.1 -729.64,-39.99 -806.19,34.01z"/>
   <path class="fil34" d="M6758.49 2997.68c71.85,66.52 240.98,39.95 353.94,39.98 140.41,0.08 293.07,-7.16 375.53,-36.28 20.91,-113.21 54.13,-625.25 -36.81,-724.23 21.11,174.05 34.46,569.42 -36.56,708.3l-656.1 12.23z"/>
   <path class="fil33" d="M2234.03 5206.18c39.79,75.24 618.1,34.55 805.56,34.41 104.76,-0.08 209.46,21.68 251.34,-34.41 -65.73,-27.76 -996.23,-27.28 -1056.9,0z"/>
   <path class="fil25" d="M6929.46 2554.37c50.51,51.14 26.12,-52.4 54.33,79.35 -87.66,0.34 -66.55,37.24 -54.33,-79.35zm-73.2 4.7l-68.4 191.26c155.04,12.51 7.64,-55.49 220.15,-49.04l25.22 55.83 81.29 -0.54 -92.95 -233.9 -31.75 -77.99c-138.69,41.6 -79.74,58.24 -133.56,114.38z"/>
   <path class="fil35" d="M6332.99 5094.8c34.26,-86.92 32.54,-121.62 -3.77,-204.84 -292.65,-69.81 -291.83,285.6 3.77,204.84z"/>
   <path class="fil35" d="M3998.44 4919.76c-102.32,22.21 -98.67,40.44 -62.79,133.79 258.58,65.22 305.92,16.04 303.35,-113.45 -65.91,-19.61 -155.44,-38.82 -240.56,-20.34z"/>
   <path class="fil33" d="M2233.66 5493.68c66.95,31.84 751.6,33.5 817.31,0 -65.11,-68.99 -439.65,-35.54 -610.45,-36.33 -199.58,-0.94 -160.79,-11.32 -206.86,36.33z"/>
   <path class="fil36" d="M2233.89 5349.93c72.64,56.74 446.16,25.44 614.02,27.51 275.02,3.39 173.15,7.92 199.01,-49.35 -149.35,-1.02 -725.9,-34.02 -813.03,21.84z"/>
   <path class="fil37" d="M7341.24 2541.7l-163.7 -3.74c-63.02,-6.25 -2.12,-7.64 -23.71,32.82l121.36 26.55c-82.65,56.68 -59.25,-10.39 -136.08,69.3 8.89,70.4 15.57,83.73 89.71,90.94 18.7,1.82 49.4,1.79 67.12,-1.07 87.32,-14.18 74.79,6.08 45.3,-214.8z"/>
   <path class="fil38" d="M1957.34 5421.81c7.9,-105.69 -33.98,-116.9 -139.36,-115.23 -94.99,1.47 -147,19.72 -146.58,115.23 69.44,49.37 211.8,55.74 285.94,0z"/>
   <path class="fil39" d="M5004.12 3503.23c-100.34,23.91 -58.37,66.53 -56.19,193.21 1.3,74.94 -11.69,165.77 8.29,231.33 112.36,-1.92 78.97,-45.81 77.36,-182.68 -0.9,-79.8 13.98,-175.25 -29.46,-241.86z"/>
   <path class="fil40" d="M4200.77 2504.46c28.46,73.4 83.62,149.26 183.76,183.22 1.22,-134.16 -42.73,-84.21 -94.71,-188.77 55.12,-49.66 97.6,-76.77 103.45,-156.09 -94.71,1.47 -159.56,101.22 -192.5,161.64z"/>
   <path class="fil40" d="M4881.51 2498.91c-27.33,54.67 -183.99,240.41 -49.57,164.24l139.33 -142.51c-24.84,-81.63 -106.28,-153.37 -190.16,-190.58 9.62,97.43 44.4,116.67 100.4,168.85z"/>
   <path class="fil40" d="M4524.97 2722.77c62.42,-78.47 150.91,-296.56 149.29,-414.04 -86.08,32.65 -173.2,339.65 -173.2,339.82 -5.29,70.23 2.03,42.44 23.91,74.22z"/>
   <path class="fil41" d="M7857.21 5420.31l-45.13 -118.14c-190.36,-14.12 -208.95,135.14 -48.19,187.52l93.32 -69.38z"/>
   <path class="fil42" d="M1403.6 4064.22l-127.26 -9c-128.44,231.56 248.42,241.29 127.26,9z"/>
   <path class="fil43" d="M4693.05 5905.77c-27.3,-62.14 8.12,-30.5 -54.84,-67.88 -86.36,19.81 -158.74,131.55 -185.03,233.93 125.27,-33.62 180.59,-88.06 239.87,-166.05z"/>
   <path class="fil44" d="M3893.55 3734.84c11.23,51.99 50.79,78.67 100.08,73.55 119.13,-12.37 121.68,-168.65 -43.66,-181.58 -29.54,26.06 -69.5,47.56 -56.42,108.03z"/>
   <path class="fil5" d="M5752.64 3768.69c78.18,61.23 121.54,69.01 178.02,-47.91 -62.91,-142.84 -207.9,-125.21 -178.02,47.91z"/>
   <path class="fil45" d="M5865.29 3554.05c155.66,66.56 64.55,129.24 209.31,134.61 4.14,-132.65 -67.29,-152.24 -141.74,-210.07l-67.65 -13.47 0.08 88.93z"/>
   <polygon class="fil28" points="4818.04,3930.52 4895.38,3928.65 4891.56,3639.2 4817.53,3639.34 "/>
   <path class="fil46" d="M4026.15 4863.59l105.63 4.16c41.14,-72.58 30.45,-103.65 -1.05,-152.81 -133.22,-30.13 -151.08,57.5 -104.58,148.65z"/>
   <path class="fil47" d="M5073.48 3745.31c-10.89,47.77 -11.52,138.6 26.49,187.84 67.63,-21.96 62.62,16.47 65.16,-116.16 3.14,-163.36 2.04,-102.1 -65.16,-127.19 -16.22,25.07 -15.57,7.55 -26.49,55.51z"/>
   <path class="fil48" d="M1770.69 5276.16c101.68,3.42 129.58,-29.63 111.07,-134.07 -49.6,-22.78 -79.63,-24.31 -132.49,-5.21 -15.5,68.96 -2.35,94.85 21.42,139.28z"/>
   <path class="fil49" d="M3196.22 3696.81c-15.39,-118.14 -109.82,-101.22 -127.14,-42.78 -22.3,75.3 45.13,128.66 127.14,42.78z"/>
   <path class="fil50" d="M4638.21 5837.89c62.96,37.38 27.54,5.74 54.84,67.88 72.64,-47.31 75.3,-63.02 75.78,-150.28 -47.73,4.18 -36.25,-15.91 -85.62,16.1 -53.94,34.94 -19.64,11.66 -45,66.3z"/>
   <path class="fil23" d="M2415.56 2755.14c18.5,-6.48 36.47,3.54 45.92,-25.83 33.79,-105.02 -3.7,-45.25 -20.88,-69.84 -66.7,32.6 -98.7,26.8 -25.04,95.67z"/>
   <path class="fil23" d="M2583.95 2754.91c24.79,-9.98 34.58,8.86 46.16,-27.67 34.66,-109.65 0.34,-38.17 -21.82,-68.05 -67.01,35.93 -90.95,26.23 -24.34,95.72z"/>
   <path class="fil23" d="M2273.36 2753.95c8.27,-9.31 87.81,-37.58 -24.42,-94.62 -23.09,31.94 -46.57,-39.28 -25.38,53 13.08,56.96 4.9,25.52 49.8,41.62z"/>
   <path class="fil51" d="M6983.79 2633.72c-28.21,-131.75 -3.82,-28.21 -54.33,-79.35 -12.22,116.59 -33.33,79.69 54.33,79.35z"/>
   <path class="fil52" d="M7331.05 3795.77l-9.62 -66.19c-98.75,18.51 -91.96,46.32 9.62,66.19z"/>
   <path class="fil53" d="M1200.45 3222.04c-20.01,-79.74 11.26,-33.25 -62.06,-61.37 24.74,81.92 -35.14,49.6 62.06,61.37z"/>
   <path class="fil36" d="M7447.86 3790.87c28.75,-32.14 49.3,63.98 13.28,-42.16 -0.97,-2.89 -9.71,-9.73 -13.28,-15.54 -6.79,11.49 -77.59,-24.39 0,57.7z"/>
   <path class="fil33" d="M7628.51 3780.4c-8.18,-44.65 0.09,-27.79 -32.4,-47.68 -35.09,54.08 -40.21,50.31 32.4,47.68z"/>
   <path class="fil54" d="M1751.96 3193.69c70.01,54.36 20.09,31.07 60.25,0 -66.25,-56.45 -15.43,-37.41 -60.25,0z"/>
   <path class="fil54" d="M1596.02 3193.69c44.68,33.19 -72.84,49.86 48.7,13.16 3.33,-1.02 10.86,-9.23 16.78,-13.16 -5.89,-4.22 -14.1,-21.39 -16.84,-13.75l-32.85 0c-3.2,1.04 -9.88,10.07 -15.79,13.75z"/>
  </g>
 </g>
</svg>
