<?xml version="1.0" encoding="UTF-8"?>
<!DOCTYPE svg PUBLIC "-//W3C//DTD SVG 1.1//EN" "http://www.w3.org/Graphics/SVG/1.1/DTD/svg11.dtd">
<!-- Creator: CorelDRAW 2020 (64 Bit) -->
<svg xmlns="http://www.w3.org/2000/svg" xml:space="preserve" width="16.9332mm" height="16.9332mm" version="1.1" style="shape-rendering:geometricPrecision; text-rendering:geometricPrecision; image-rendering:optimizeQuality; fill-rule:evenodd; clip-rule:evenodd"
viewBox="0 0 1693.32 1693.32"
 xmlns:xlink="http://www.w3.org/1999/xlink"
 xmlns:xodm="http://www.corel.com/coreldraw/odm/2003">
 <defs>
  <style type="text/css">
   <![CDATA[
    .fil1 {fill:#6657FF}
    .fil0 {fill:#CF00FF}
   ]]>
  </style>
 </defs>
 <g id="Camada_x0020_1">
  <metadata id="CorelCorpID_0Corel-Layer"/>
  <g id="_2855726736064">
   <path class="fil0" d="M178.03 1162.42c-33.13,26.06 -67.26,49.53 -92.4,84.65 -84.73,118.39 22.99,308.38 188.57,266.32 48.12,-12.23 79.6,-43.36 109.23,-67.78 33.25,-27.4 64.1,-52.2 97.47,-79.56l146.29 -119.32c47.18,-36.36 99.48,-83.41 144.75,-118.16 54.51,-41.85 115.35,-94.45 171.35,-139.86 42.04,-34.1 74.69,-71.93 78.45,-139.43 5.82,-104.4 -76.34,-155.38 -145.04,-209.83l-493.03 -392.34c-29.12,-23.43 -61.43,-53.86 -107.56,-66.62 -107.72,-29.79 -197.43,47.54 -215.14,129.72 -25.23,117.11 48.6,166.72 118.44,221.65l391.69 314.63 -393.07 315.93z"/>
   <path class="fil1" d="M1446.9 1509.34c-10.74,-4.72 -68.74,-7.36 -109.17,-53.76 -44.09,-50.59 -61.29,-113.27 -35.4,-182.97 14,-37.67 43.07,-67.97 76.49,-87.21 22.5,-12.95 44.13,-13.86 60.48,-22.54 -140.36,-5.49 -337.11,-0.36 -487.92,-0.45 -59.74,-0.04 -42.27,0.59 -109.37,52.27l-316.12 249.99c-32.35,25.67 -34.99,22.56 -24.79,45.16l945.8 -0.49z"/>
   <path class="fil0" d="M1446.9 1509.34c63.01,2.51 104.83,-19.04 137.94,-48.23 12.15,-10.7 28.15,-35.48 37.21,-53.98 34.58,-70.57 6.66,-162.96 -43.24,-200.71 -42.02,-31.78 -69.22,-45.82 -139.51,-43.56 -16.35,8.68 -37.98,9.59 -60.48,22.54 -33.42,19.24 -62.49,49.54 -76.49,87.21 -25.89,69.7 -8.69,132.38 35.4,182.97 40.43,46.4 98.43,49.04 109.17,53.76z"/>
  </g>
 </g>
</svg>
